<?xml version="1.0" standalone="no"?>
<!DOCTYPE svg PUBLIC "-//W3C//DTD SVG 20010904//EN"
 "http://www.w3.org/TR/2001/REC-SVG-20010904/DTD/svg10.dtd">
<svg version="1.0" xmlns="http://www.w3.org/2000/svg"
 width="260.000000pt" height="260.000000pt" viewBox="0 0 260.000000 260.000000"
 preserveAspectRatio="xMidYMid meet">
<metadata>
Created by potrace 1.16, written by Peter Selinger 2001-2019
</metadata>
<g transform="translate(0.000000,260.000000) scale(0.100000,-0.100000)"
fill="#000000" stroke="none">
<path d="M1290 2403 c-14 -3 -1156 -1992 -1167 -2031 -2 -10 2 -24 10 -30 11
-9 293 -11 1178 -10 l1164 3 0 30 c0 21 -164 318 -570 1028 -314 550 -577
1002 -585 1006 -8 4 -22 6 -30 4z m554 -1068 l526 -920 -1062 -3 c-584 -1
-1063 0 -1066 2 -2 3 235 424 528 937 355 620 535 927 541 918 4 -8 244 -428
533 -934z"/>
<path d="M1075 1224 c-93 -34 -144 -117 -145 -235 0 -102 33 -170 104 -213 87
-54 226 -45 285 17 l21 23 -24 23 -25 23 -34 -21 c-45 -28 -120 -28 -165 -1
-67 41 -92 161 -52 241 39 75 128 101 209 59 l38 -19 22 23 c11 12 21 27 21
33 0 6 -23 23 -52 37 -60 30 -138 34 -203 10z"/>
<path d="M1404 1227 c-2 -7 -3 -118 -2 -247 l3 -235 143 -3 142 -3 0 41 0 40
-100 0 -100 0 0 210 0 210 -40 0 c-24 0 -43 -5 -46 -13z"/>
</g>
</svg>
