<?xml version="1.0" standalone="no"?>
<!DOCTYPE svg PUBLIC "-//W3C//DTD SVG 20010904//EN"
 "http://www.w3.org/TR/2001/REC-SVG-20010904/DTD/svg10.dtd">
<svg version="1.0" xmlns="http://www.w3.org/2000/svg"
 width="260.000000pt" height="260.000000pt" viewBox="0 0 260.000000 260.000000"
 preserveAspectRatio="xMidYMid meet">
<metadata>
Created by potrace 1.16, written by Peter Selinger 2001-2019
</metadata>
<g transform="translate(0.000000,260.000000) scale(0.100000,-0.100000)"
fill="#000000" stroke="none">
<path d="M1137 2500 c-194 -33 -385 -131 -535 -275 -44 -41 -82 -75 -85 -75
-3 0 -37 25 -76 55 -74 57 -100 66 -121 40 -20 -24 -3 -48 75 -108 l74 -58
-36 -57 c-48 -75 -96 -188 -125 -292 -20 -73 -23 -109 -23 -255 0 -153 3 -179
27 -265 30 -110 72 -205 122 -284 l35 -55 -74 -58 c-78 -60 -95 -84 -75 -108
20 -25 45 -17 110 33 34 26 68 51 75 57 10 7 36 -12 97 -71 143 -138 310 -225
508 -266 139 -29 358 -22 485 16 176 52 316 133 444 255 40 39 76 71 78 71 2
0 36 -25 75 -55 71 -55 111 -68 122 -39 12 32 4 44 -66 99 -40 32 -74 60 -76
64 -1 4 18 43 43 87 98 171 138 325 137 524 0 130 -15 219 -53 331 -24 71 -81
189 -111 232 -11 15 -18 31 -16 36 2 5 36 34 76 66 71 55 84 79 60 103 -21 21
-43 13 -115 -43 -39 -30 -74 -55 -78 -55 -4 0 -33 26 -64 58 -141 144 -326
244 -533 286 -83 17 -295 20 -381 6z m427 -99 c157 -44 321 -138 428 -248 l58
-58 -168 -130 c-92 -71 -255 -198 -364 -282 -108 -84 -198 -153 -201 -153 -3
0 -121 90 -263 200 -143 110 -301 233 -352 272 -126 98 -123 91 -76 139 127
132 316 234 504 274 99 22 333 14 434 -14z m-629 -681 l316 -245 -32 -25 c-18
-14 -179 -138 -358 -277 -293 -227 -327 -250 -339 -235 -31 40 -114 224 -134
297 -31 116 -31 365 0 478 25 90 62 177 110 260 l34 57 44 -32 c23 -18 185
-143 359 -278z m1240 174 c69 -138 97 -260 97 -419 0 -107 -5 -147 -26 -229
-25 -96 -96 -258 -133 -302 l-18 -22 -135 105 c-452 351 -570 445 -565 453 3
4 100 81 216 171 116 90 272 212 347 271 l137 106 18 -21 c10 -12 38 -63 62
-113z m-491 -754 c195 -151 355 -280 356 -286 0 -17 -119 -126 -191 -175 -147
-99 -298 -148 -482 -156 -193 -8 -325 19 -490 103 -108 54 -288 198 -286 228
0 13 719 568 730 564 4 -2 167 -127 363 -278z"/>
</g>
</svg>
