<?xml version="1.0" standalone="no"?>
<!DOCTYPE svg PUBLIC "-//W3C//DTD SVG 20010904//EN"
 "http://www.w3.org/TR/2001/REC-SVG-20010904/DTD/svg10.dtd">
<svg version="1.0" xmlns="http://www.w3.org/2000/svg"
 width="260.000000pt" height="260.000000pt" viewBox="0 0 260.000000 260.000000"
 preserveAspectRatio="xMidYMid meet">
<metadata>
Created by potrace 1.16, written by Peter Selinger 2001-2019
</metadata>
<g transform="translate(0.000000,260.000000) scale(0.100000,-0.100000)"
fill="#000000" stroke="none">
<path d="M332 1918 c-19 -19 -14 -45 16 -73 15 -15 159 -144 320 -288 l293
-262 -208 -6 c-245 -7 -285 -17 -367 -89 -72 -64 -89 -106 -190 -474 -71 -261
-92 -354 -85 -368 9 -16 25 -18 175 -18 91 0 164 -4 162 -8 -1 -5 -40 -42 -85
-82 -87 -76 -103 -109 -64 -130 11 -5 22 -10 24 -10 2 0 62 52 133 115 l129
114 88 1 c48 0 87 -2 87 -5 0 -3 -16 -37 -36 -76 -43 -87 -43 -124 0 -124 27
0 33 8 80 100 l51 100 213 3 212 2 0 -88 c0 -99 11 -126 51 -120 23 3 24 6 29
103 l5 100 212 3 211 2 54 -102 c50 -96 56 -103 83 -103 44 0 44 37 1 123 -19
38 -32 72 -29 76 4 3 34 6 67 6 l61 0 100 -91 c150 -135 160 -142 184 -129 41
21 26 53 -63 131 -47 41 -85 77 -85 82 -1 4 73 7 164 7 148 0 165 2 174 18 7
14 -32 172 -154 623 -91 332 -174 637 -186 677 l-21 74 76 70 c75 69 88 92 64
116 -20 20 -38 14 -97 -38 -32 -27 -60 -50 -63 -50 -4 0 -9 14 -13 30 l-7 30
-473 0 c-417 0 -475 -2 -489 -16 -20 -19 -20 -38 -3 -53 10 -7 150 -12 457
-13 442 -3 443 -3 451 -24 7 -19 -24 -51 -254 -258 l-262 -235 -220 0 -220 0
-140 126 c-406 365 -575 513 -587 513 -8 0 -19 -5 -26 -12z m1748 -260 c0 -7
21 -91 46 -186 26 -94 45 -174 42 -177 -3 -3 -120 -4 -261 -3 l-257 3 208 187
c114 103 210 187 215 188 4 0 7 -6 7 -12z m-934 -530 c49 -45 89 -85 89 -89 0
-4 -45 -47 -100 -96 -55 -50 -208 -188 -340 -306 l-240 -217 -179 0 -178 0 6
23 c81 311 167 602 190 640 31 55 87 95 154 113 31 8 125 13 278 13 l230 1 90
-82z m274 77 c0 -10 -103 -100 -115 -100 -12 0 -115 90 -115 100 0 3 52 5 115
5 63 0 115 -2 115 -5z m780 -17 c9 -20 210 -752 210 -763 0 -3 -80 -5 -177 -5
l-178 1 -136 122 c-75 67 -174 156 -220 198 -46 42 -138 124 -204 184 -66 59
-120 111 -120 115 0 4 41 44 90 89 l90 81 318 0 317 0 10 -22z m-698 -378
c100 -91 238 -215 306 -275 l123 -110 -316 -3 c-174 -1 -456 -1 -626 0 l-310
3 157 140 c86 77 225 202 308 277 83 75 156 136 163 135 6 -1 94 -76 195 -167z"/>
</g>
</svg>
