<?xml version="1.0" standalone="no"?>
<!DOCTYPE svg PUBLIC "-//W3C//DTD SVG 20010904//EN"
 "http://www.w3.org/TR/2001/REC-SVG-20010904/DTD/svg10.dtd">
<svg version="1.0" xmlns="http://www.w3.org/2000/svg"
 width="260.000000pt" height="260.000000pt" viewBox="0 0 260.000000 260.000000"
 preserveAspectRatio="xMidYMid meet">
<metadata>
Created by potrace 1.16, written by Peter Selinger 2001-2019
</metadata>
<g transform="translate(0.000000,260.000000) scale(0.100000,-0.100000)"
fill="#000000" stroke="none">
<path d="M1269 2398 c-9 -7 -121 -199 -250 -425 -145 -256 -239 -411 -246
-408 -7 2 -98 82 -203 177 -105 95 -203 177 -216 183 -21 8 -29 6 -40 -10 -25
-34 -34 -25 193 -227 72 -65 153 -139 181 -165 l50 -48 -310 -540 c-171 -297
-313 -548 -315 -558 -12 -40 11 -47 171 -47 l151 -1 -89 -82 c-73 -68 -88 -86
-82 -104 9 -29 34 -36 63 -18 14 9 72 59 129 111 l105 94 729 0 730 0 107 -96
c128 -114 145 -126 166 -118 20 7 31 39 20 57 -4 8 -41 43 -80 77 -40 35 -73
67 -73 71 0 5 69 10 153 11 149 3 152 3 155 26 2 15 -100 203 -307 566 -171
299 -311 548 -311 554 0 5 97 96 215 201 124 111 215 200 215 210 0 22 -19 41
-41 41 -10 0 -110 -84 -224 -186 -173 -156 -209 -184 -220 -173 -7 8 -115 194
-240 414 -205 361 -245 425 -265 425 -3 0 -13 -6 -21 -12z m464 -908 c-4 -4
-104 -93 -221 -199 -118 -105 -217 -191 -221 -191 -11 0 -441 390 -441 401 0
8 285 513 405 718 l37 63 224 -393 c124 -216 221 -396 217 -399z m-715 -260
l211 -190 -147 -132 c-81 -73 -210 -189 -287 -257 -77 -69 -142 -128 -145
-131 -3 -3 -31 -29 -62 -58 l-57 -52 -155 0 -154 0 286 504 c158 278 290 505
293 505 3 1 101 -85 217 -189z m1025 -263 c141 -248 271 -476 287 -504 l30
-53 -153 0 -152 0 -131 117 c-71 65 -228 205 -347 312 -119 107 -217 198 -217
202 0 4 77 76 172 160 95 85 188 169 208 186 19 18 37 33 40 33 3 0 121 -204
263 -453z m-635 -87 c62 -54 204 -183 317 -285 l205 -185 -639 0 -640 0 52 48
c29 26 115 104 192 172 77 69 158 141 180 161 163 148 210 189 215 189 3 0 56
-45 118 -100z"/>
</g>
</svg>
