<?xml version="1.0" standalone="no"?>
<!DOCTYPE svg PUBLIC "-//W3C//DTD SVG 20010904//EN"
 "http://www.w3.org/TR/2001/REC-SVG-20010904/DTD/svg10.dtd">
<svg version="1.0" xmlns="http://www.w3.org/2000/svg"
 width="260.000000pt" height="260.000000pt" viewBox="0 0 260.000000 260.000000"
 preserveAspectRatio="xMidYMid meet">
<metadata>
Created by potrace 1.16, written by Peter Selinger 2001-2019
</metadata>
<g transform="translate(0.000000,260.000000) scale(0.100000,-0.100000)"
fill="#000000" stroke="none">
<path d="M332 2008 c-7 -7 -12 -19 -12 -29 0 -9 78 -86 173 -171 240 -216 245
-221 222 -213 -11 4 -36 14 -55 21 -46 17 -126 17 -183 0 -25 -7 -83 -39 -129
-70 -58 -39 -84 -52 -89 -43 -4 6 -22 86 -40 175 -32 160 -46 196 -77 190 -41
-8 -39 -19 112 -764 l148 -727 -61 -60 c-33 -33 -61 -65 -61 -72 0 -15 27 -45
40 -45 5 0 40 27 78 60 l70 60 844 0 845 0 19 -21 c42 -48 114 -97 133 -92 48
12 32 56 -44 119 -25 21 -45 45 -45 54 0 8 66 341 147 739 142 699 146 724
128 737 -46 34 -59 9 -99 -184 -19 -96 -36 -176 -38 -178 -2 -2 -31 15 -63 37
-104 70 -155 92 -225 96 -43 3 -79 0 -105 -10 -22 -8 -49 -18 -60 -22 -27 -10
61 73 307 290 84 74 93 87 78 116 -19 34 -49 20 -148 -69 -53 -48 -181 -163
-284 -254 l-186 -167 -39 11 c-21 6 -83 33 -138 61 -97 49 -103 51 -185 51
-83 1 -87 -1 -200 -56 -63 -31 -127 -58 -142 -59 -23 -3 -48 14 -149 106 -341
307 -443 395 -458 395 -10 0 -22 -5 -29 -12z m1141 -505 c64 -31 116 -60 115
-63 -6 -14 -273 -250 -280 -247 -12 4 -278 240 -278 247 0 5 198 104 230 114
51 16 99 4 213 -51z m-753 -4 c47 -23 111 -50 142 -58 51 -14 75 -32 218 -160
88 -79 160 -147 160 -151 0 -4 -35 -38 -77 -76 -43 -38 -80 -71 -83 -74 -3 -3
-68 -61 -145 -130 -77 -69 -160 -143 -185 -166 -155 -142 -272 -245 -275 -242
-2 2 -11 37 -19 78 -8 41 -51 252 -96 468 -44 216 -80 398 -80 405 0 13 153
116 210 142 58 26 132 14 230 -36z m1404 37 c19 -8 75 -42 126 -76 77 -52 91
-65 87 -83 -3 -12 -47 -227 -98 -477 -51 -250 -93 -457 -95 -458 -1 -2 -62 50
-136 116 -73 66 -247 221 -385 346 l-253 226 137 123 c192 173 195 175 246
186 25 6 91 33 148 61 111 54 160 62 223 36z m-435 -801 l372 -335 -753 0
-753 1 35 31 c19 17 53 47 75 67 22 20 103 92 180 161 77 69 211 189 298 268
87 78 161 142 165 142 4 0 175 -151 381 -335z"/>
</g>
</svg>
