<?xml version="1.0" standalone="no"?>
<!DOCTYPE svg PUBLIC "-//W3C//DTD SVG 20010904//EN"
 "http://www.w3.org/TR/2001/REC-SVG-20010904/DTD/svg10.dtd">
<svg version="1.0" xmlns="http://www.w3.org/2000/svg"
 width="260.000000pt" height="260.000000pt" viewBox="0 0 260.000000 260.000000"
 preserveAspectRatio="xMidYMid meet">
<metadata>
Created by potrace 1.16, written by Peter Selinger 2001-2019
</metadata>
<g transform="translate(0.000000,260.000000) scale(0.100000,-0.100000)"
fill="#000000" stroke="none">
<path d="M280 2390 c0 -49 -3 -90 -6 -90 -3 0 -19 11 -36 25 -34 29 -73 32
-86 8 -14 -27 -6 -38 64 -94 l64 -51 0 -752 0 -753 -61 -44 c-65 -47 -82 -69
-73 -93 11 -28 43 -29 83 -2 20 14 40 26 44 26 4 0 7 -38 7 -85 l0 -85 1040 0
1040 0 0 85 c0 47 3 85 6 85 3 0 20 -11 38 -25 36 -28 56 -31 74 -13 24 24 11
47 -53 98 l-65 52 0 757 0 756 60 45 c64 48 74 62 65 91 -9 27 -50 24 -90 -7
l-34 -26 -3 89 -3 88 -1037 3 -1038 2 0 -90z m1998 -70 c1 -41 -1 -80 -5 -85
-5 -6 -58 -50 -120 -98 l-112 -88 -63 62 c-112 109 -244 186 -405 236 -81 25
-101 27 -258 27 -156 0 -177 -3 -258 -27 -155 -48 -275 -117 -390 -226 l-74
-71 -117 91 -116 90 0 84 0 85 958 -2 957 -3 3 -75z m-743 -45 c81 -23 192
-75 273 -129 81 -54 170 -142 157 -154 -29 -27 -637 -492 -644 -495 -11 -2 -8
-4 -386 288 -148 115 -271 209 -273 211 -7 5 46 58 108 109 107 87 235 149
372 180 82 19 309 13 393 -10z m-1079 -221 c46 -36 84 -68 84 -70 0 -3 -20
-40 -45 -82 -150 -256 -162 -595 -30 -867 24 -49 52 -102 61 -117 10 -15 16
-29 14 -31 -3 -2 -44 -34 -92 -71 l-88 -68 0 686 c0 377 3 686 6 686 3 0 43
-30 90 -66z m1824 -619 c0 -377 -2 -685 -5 -685 -3 0 -46 32 -96 71 -85 68
-89 72 -76 93 185 282 208 645 61 939 -20 40 -45 85 -56 100 -11 16 -17 32
-12 36 35 32 168 131 175 131 5 0 9 -307 9 -685z m-1355 255 c171 -132 310
-245 310 -252 0 -17 -615 -490 -629 -485 -21 8 -105 188 -128 272 -28 109 -31
309 -4 410 29 106 115 295 136 295 3 0 144 -108 315 -240z m1160 134 c68 -132
90 -231 90 -394 0 -139 -11 -195 -61 -318 -42 -101 -81 -165 -98 -159 -7 3
-73 52 -147 109 -385 297 -479 372 -477 378 6 15 623 489 633 486 6 -1 33 -47
60 -102z m-520 -630 c132 -102 277 -215 323 -250 l82 -66 -18 -23 c-10 -12
-39 -41 -65 -63 -141 -122 -288 -188 -476 -212 -243 -32 -526 66 -699 243
l-54 54 238 184 c131 101 276 214 323 251 47 37 91 67 96 68 6 0 118 -84 250
-186z m-794 -527 c367 -261 867 -223 1201 92 79 73 55 78 208 -41 l95 -74 3
-82 3 -82 -961 0 -960 0 0 83 0 83 117 90 117 91 55 -56 c31 -31 86 -78 122
-104z"/>
</g>
</svg>
