<?xml version="1.0" standalone="no"?>
<!DOCTYPE svg PUBLIC "-//W3C//DTD SVG 20010904//EN"
 "http://www.w3.org/TR/2001/REC-SVG-20010904/DTD/svg10.dtd">
<svg version="1.0" xmlns="http://www.w3.org/2000/svg"
 width="260.000000pt" height="260.000000pt" viewBox="0 0 260.000000 260.000000"
 preserveAspectRatio="xMidYMid meet">
<metadata>
Created by potrace 1.16, written by Peter Selinger 2001-2019
</metadata>
<g transform="translate(0.000000,260.000000) scale(0.100000,-0.100000)"
fill="#000000" stroke="none">
<path d="M590 2199 c-14 -25 -28 -1 235 -379 105 -151 195 -281 200 -289 9
-16 4 -13 -55 27 -133 90 -374 161 -632 186 -95 10 -88 49 -88 -533 0 -381 3
-510 12 -519 43 -43 278 34 409 136 l67 51 48 -18 c27 -10 76 -24 109 -31 33
-7 64 -16 68 -20 4 -4 -25 -54 -66 -111 -100 -143 -247 -354 -286 -412 -21
-31 -30 -54 -26 -67 7 -23 41 -36 58 -22 7 6 104 143 217 306 l205 295 57 1
c84 0 197 25 273 59 37 17 71 29 75 26 5 -3 110 -152 235 -333 125 -180 235
-335 245 -346 22 -22 56 -14 65 15 5 15 -2 34 -23 62 -95 135 -421 607 -418
607 2 0 29 -16 61 -35 125 -75 299 -131 496 -160 128 -18 171 -19 187 -3 9 9
12 138 12 519 0 448 -2 509 -16 523 -19 20 -28 20 -117 0 -92 -21 -215 -78
-293 -137 l-60 -46 -75 23 c-41 13 -88 27 -105 32 l-31 9 194 278 c106 154
193 285 193 292 0 21 -28 38 -52 31 -16 -4 -88 -100 -227 -301 l-203 -295 -92
0 c-106 0 -187 -18 -267 -59 l-55 -29 -230 331 c-126 181 -235 336 -242 344
-20 19 -50 16 -62 -8z m-33 -570 c115 -25 215 -59 295 -99 73 -37 148 -88 148
-99 0 -5 -15 -32 -34 -59 -18 -28 -52 -88 -74 -134 -107 -219 -279 -387 -459
-447 -115 -38 -103 -87 -103 425 l0 447 68 -7 c37 -4 108 -16 159 -27z m1693
-419 l0 -450 -42 6 c-267 37 -490 112 -598 202 l-33 28 30 45 c17 24 54 91 83
149 68 136 122 211 213 296 79 74 165 126 257 155 100 32 90 80 90 -431z
m-836 233 c-99 -143 -107 -154 -116 -151 -5 2 -35 41 -68 88 l-60 85 45 23
c63 31 140 51 208 51 l58 1 -67 -97z m324 58 c46 -13 51 -21 25 -42 -28 -23
-112 -159 -155 -249 -22 -47 -58 -109 -80 -139 -46 -61 -38 -65 -122 55 l-56
81 115 165 115 166 57 -13 c32 -7 77 -17 101 -24z m-559 -192 l71 -102 -19
-26 c-10 -14 -59 -86 -110 -158 -104 -150 -93 -144 -215 -113 -116 29 -114 25
-52 107 29 39 80 124 114 189 50 99 121 204 137 204 3 0 36 -46 74 -101z m185
-264 l55 -79 -27 -18 c-51 -34 -262 -85 -262 -64 0 13 165 246 172 243 4 -1
32 -38 62 -82z"/>
</g>
</svg>
