<?xml version="1.0" standalone="no"?>
<!DOCTYPE svg PUBLIC "-//W3C//DTD SVG 20010904//EN"
 "http://www.w3.org/TR/2001/REC-SVG-20010904/DTD/svg10.dtd">
<svg version="1.0" xmlns="http://www.w3.org/2000/svg"
 width="260.000000pt" height="260.000000pt" viewBox="0 0 260.000000 260.000000"
 preserveAspectRatio="xMidYMid meet">
<metadata>
Created by potrace 1.16, written by Peter Selinger 2001-2019
</metadata>
<g transform="translate(0.000000,260.000000) scale(0.100000,-0.100000)"
fill="#000000" stroke="none">
<path d="M270 2225 c0 -58 -3 -105 -7 -105 -5 0 -42 25 -83 55 -77 56 -97 64
-118 43 -27 -27 -11 -49 98 -129 l110 -81 0 -707 0 -708 -110 -81 c-117 -87
-133 -112 -85 -134 22 -10 32 -6 96 41 39 29 78 55 85 58 11 4 14 -17 14 -111
l0 -116 1038 2 1037 3 5 113 5 112 75 -55 c41 -30 80 -55 87 -55 16 0 43 28
43 46 0 8 -47 49 -105 92 l-105 77 0 717 0 716 100 72 c100 72 122 99 100 125
-20 25 -42 17 -120 -39 l-75 -54 -3 104 -3 104 -1039 0 -1040 0 0 -105z m1995
-75 l0 -95 -480 -351 c-269 -198 -484 -349 -490 -345 -5 4 -220 162 -477 350
l-468 342 0 100 0 99 958 -2 957 -3 0 -95z m-1250 -687 c116 -85 211 -157 212
-161 2 -7 -847 -633 -868 -640 -5 -2 -9 241 -9 642 l0 646 228 -167 c125 -92
321 -236 437 -320z m1255 -156 c0 -354 -3 -646 -6 -649 -7 -7 -879 631 -879
643 0 9 864 648 878 648 4 1 7 -289 7 -642z m-700 -251 c319 -234 469 -344
594 -436 l101 -75 0 -105 0 -105 -958 -3 -958 -2 3 112 3 112 474 348 c261
191 479 344 485 341 6 -4 121 -88 256 -187z"/>
</g>
</svg>
