<?xml version="1.0" standalone="no"?>
<!DOCTYPE svg PUBLIC "-//W3C//DTD SVG 20010904//EN"
 "http://www.w3.org/TR/2001/REC-SVG-20010904/DTD/svg10.dtd">
<svg version="1.0" xmlns="http://www.w3.org/2000/svg"
 width="260.000000pt" height="260.000000pt" viewBox="0 0 260.000000 260.000000"
 preserveAspectRatio="xMidYMid meet">
<metadata>
Created by potrace 1.16, written by Peter Selinger 2001-2019
</metadata>
<g transform="translate(0.000000,260.000000) scale(0.100000,-0.100000)"
fill="#000000" stroke="none">
<path d="M342 1908 c-7 -7 -12 -20 -12 -29 0 -10 98 -105 223 -216 122 -110
268 -241 324 -291 l103 -92 -179 0 c-194 0 -261 -9 -330 -42 -58 -28 -121 -91
-148 -148 -28 -58 -205 -705 -201 -734 3 -20 8 -21 171 -24 92 -1 167 -5 167
-9 0 -4 -39 -43 -86 -87 -72 -67 -86 -85 -80 -103 9 -28 34 -37 60 -20 12 8
72 60 134 116 l113 101 719 0 720 0 109 -99 c61 -55 122 -108 136 -117 25 -16
27 -16 47 3 29 30 18 48 -80 133 l-86 75 174 5 c168 5 175 6 178 26 2 12 -22
111 -52 220 -134 486 -306 1127 -306 1139 0 7 34 43 75 80 74 66 87 89 63 113
-21 21 -44 13 -103 -39 -57 -50 -70 -52 -77 -14 -3 20 -12 20 -471 23 -320 1
-474 -1 -488 -9 -14 -7 -19 -18 -17 -37 l3 -27 452 -3 c568 -3 541 16 293
-205 -74 -66 -157 -141 -185 -166 -27 -25 -76 -70 -108 -99 l-59 -52 -219 0
-219 0 -102 93 c-119 107 -477 429 -557 500 -54 48 -78 56 -99 35z m1797 -438
c28 -101 49 -185 47 -187 -2 -2 -120 -2 -263 -1 l-259 3 168 150 c252 225 252
225 254 222 2 -2 26 -86 53 -187z m-979 -351 c49 -44 90 -84 90 -89 0 -4 -100
-97 -222 -206 -122 -110 -276 -247 -342 -307 l-119 -107 -178 0 -178 0 10 33
c5 17 43 158 85 312 42 154 83 291 91 305 41 66 110 116 183 131 19 4 137 7
262 8 l228 1 90 -81z m270 66 c-7 -9 -35 -34 -62 -56 l-48 -41 -55 47 c-30 25
-55 51 -55 56 0 5 52 9 116 9 103 0 115 -2 104 -15z m889 -380 l106 -390 -174
-3 c-129 -2 -179 1 -192 10 -9 7 -62 54 -116 103 -54 50 -201 182 -326 294
-125 112 -227 207 -227 211 0 4 41 44 90 89 l91 81 321 -2 321 -3 106 -390z
m-768 -37 c123 -110 262 -236 309 -279 l85 -78 -625 0 -625 0 55 52 c108 102
563 507 570 507 3 0 107 -91 231 -202z"/>
</g>
</svg>
