<?xml version="1.0" standalone="no"?>
<!DOCTYPE svg PUBLIC "-//W3C//DTD SVG 20010904//EN"
 "http://www.w3.org/TR/2001/REC-SVG-20010904/DTD/svg10.dtd">
<svg version="1.0" xmlns="http://www.w3.org/2000/svg"
 width="260.000000pt" height="260.000000pt" viewBox="0 0 260.000000 260.000000"
 preserveAspectRatio="xMidYMid meet">
<metadata>
Created by potrace 1.16, written by Peter Selinger 2001-2019
</metadata>
<g transform="translate(0.000000,260.000000) scale(0.100000,-0.100000)"
fill="#000000" stroke="none">
<path d="M272 1303 l3 -1038 1038 -3 1037 -2 0 1040 0 1040 -1040 0 -1040 0 2
-1037z m1998 -3 l0 -960 -957 2 -958 3 -3 945 c-1 520 0 951 3 958 3 9 205 12
960 12 l955 0 0 -960z"/>
<path d="M870 1300 l0 -500 40 0 40 0 0 500 0 500 -40 0 -40 0 0 -500z"/>
<path d="M1270 1300 l0 -500 40 0 40 0 0 500 0 500 -40 0 -40 0 0 -500z"/>
<path d="M1670 1300 l0 -500 40 0 40 0 0 500 0 500 -40 0 -40 0 0 -500z"/>
</g>
</svg>
