<?xml version="1.0" standalone="no"?>
<!DOCTYPE svg PUBLIC "-//W3C//DTD SVG 20010904//EN"
 "http://www.w3.org/TR/2001/REC-SVG-20010904/DTD/svg10.dtd">
<svg version="1.0" xmlns="http://www.w3.org/2000/svg"
 width="260.000000pt" height="260.000000pt" viewBox="0 0 260.000000 260.000000"
 preserveAspectRatio="xMidYMid meet">
<metadata>
Created by potrace 1.16, written by Peter Selinger 2001-2019
</metadata>
<g transform="translate(0.000000,260.000000) scale(0.100000,-0.100000)"
fill="#000000" stroke="none">
<path d="M260 1310 l0 -1040 1040 0 1040 0 0 1040 0 1040 -1040 0 -1040 0 0
-1040z m330 952 c0 -4 -56 -63 -125 -132 l-125 -125 0 126 c0 69 3 129 7 132
9 10 243 9 243 -1z m400 0 c0 -4 -146 -153 -325 -332 l-325 -325 0 140 0 140
192 192 193 193 132 0 c73 0 133 -3 133 -8z m1270 -952 l0 -960 -960 0 -960 0
0 567 0 568 392 392 393 393 567 0 568 0 0 -960z"/>
<path d="M860 1310 l0 -500 40 0 40 0 0 500 0 500 -40 0 -40 0 0 -500z"/>
<path d="M1260 1310 l0 -500 40 0 40 0 0 500 0 500 -40 0 -40 0 0 -500z"/>
<path d="M1660 1310 l0 -500 40 0 40 0 0 500 0 500 -40 0 -40 0 0 -500z"/>
</g>
</svg>
