<?xml version="1.0" standalone="no"?>
<!DOCTYPE svg PUBLIC "-//W3C//DTD SVG 20010904//EN"
 "http://www.w3.org/TR/2001/REC-SVG-20010904/DTD/svg10.dtd">
<svg version="1.0" xmlns="http://www.w3.org/2000/svg"
 width="260.000000pt" height="260.000000pt" viewBox="0 0 260.000000 260.000000"
 preserveAspectRatio="xMidYMid meet">
<metadata>
Created by potrace 1.16, written by Peter Selinger 2001-2019
</metadata>
<g transform="translate(0.000000,260.000000) scale(0.100000,-0.100000)"
fill="#000000" stroke="none">
<path d="M1134 2510 c-91 -17 -217 -61 -304 -107 -203 -107 -357 -267 -454
-474 -189 -400 -107 -869 207 -1180 202 -200 444 -299 730 -299 205 0 377 48
547 151 108 66 267 224 334 331 160 258 201 597 106 878 -110 328 -368 575
-707 676 -76 23 -110 27 -248 30 -88 1 -183 -1 -211 -6z m358 -84 c306 -59
551 -251 689 -539 67 -140 83 -218 83 -402 0 -184 -16 -262 -83 -402 -125
-261 -330 -436 -607 -519 -127 -38 -329 -45 -461 -16 -359 80 -637 349 -729
707 -22 83 -26 123 -26 230 0 159 28 283 96 420 130 263 378 458 661 518 90
20 283 21 377 3z"/>
<path d="M1252 1783 c-7 -13 -160 -399 -219 -550 -7 -18 91 -18 105 0 6 7 20
38 32 70 l21 57 119 0 119 0 21 -57 c12 -32 26 -63 32 -70 14 -18 112 -18 105
0 -3 6 -50 128 -105 269 -56 142 -106 267 -112 278 -15 27 -104 29 -118 3z
m103 -215 c22 -62 42 -116 43 -120 2 -5 -37 -8 -87 -8 l-90 0 36 98 c19 53 38
107 40 120 3 12 8 22 12 22 3 0 24 -51 46 -112z"/>
</g>
</svg>
