<?xml version="1.0" standalone="no"?>
<!DOCTYPE svg PUBLIC "-//W3C//DTD SVG 20010904//EN"
 "http://www.w3.org/TR/2001/REC-SVG-20010904/DTD/svg10.dtd">
<svg version="1.0" xmlns="http://www.w3.org/2000/svg"
 width="260.000000pt" height="260.000000pt" viewBox="0 0 260.000000 260.000000"
 preserveAspectRatio="xMidYMid meet">
<metadata>
Created by potrace 1.16, written by Peter Selinger 2001-2019
</metadata>
<g transform="translate(0.000000,260.000000) scale(0.100000,-0.100000)"
fill="#000000" stroke="none">
<path d="M1125 2508 c-243 -45 -476 -184 -624 -373 -357 -452 -286 -1098 159
-1458 100 -81 267 -167 385 -198 114 -30 338 -37 460 -14 315 59 589 266 735
554 67 134 99 258 107 416 25 511 -324 963 -822 1066 -98 20 -310 24 -400 7z
m367 -82 c329 -65 609 -304 719 -617 76 -212 77 -424 5 -635 -99 -291 -336
-517 -642 -610 -82 -26 -103 -28 -259 -28 -149 -1 -180 2 -249 22 -173 50
-322 138 -439 261 -189 198 -273 407 -270 676 1 157 28 277 93 406 57 113 90
160 174 247 140 146 298 233 497 277 85 18 279 19 371 1z"/>
<path d="M1140 1491 l0 -291 50 0 50 0 0 99 0 98 83 5 c98 5 146 26 191 82 28
34 31 45 31 105 0 83 -26 128 -94 161 -39 19 -67 24 -178 28 l-133 5 0 -292z
m271 170 c23 -23 29 -38 29 -71 0 -33 -6 -48 -29 -71 -27 -27 -35 -29 -100
-29 l-71 0 0 100 0 100 71 0 c65 0 73 -2 100 -29z"/>
</g>
</svg>
