<?xml version="1.0" standalone="no"?>
<!DOCTYPE svg PUBLIC "-//W3C//DTD SVG 20010904//EN"
 "http://www.w3.org/TR/2001/REC-SVG-20010904/DTD/svg10.dtd">
<svg version="1.0" xmlns="http://www.w3.org/2000/svg"
 width="260.000000pt" height="260.000000pt" viewBox="0 0 260.000000 260.000000"
 preserveAspectRatio="xMidYMid meet">
<metadata>
Created by potrace 1.16, written by Peter Selinger 2001-2019
</metadata>
<g transform="translate(0.000000,260.000000) scale(0.100000,-0.100000)"
fill="#000000" stroke="none">
<path d="M1128 2500 c-205 -37 -404 -142 -553 -294 -137 -138 -222 -286 -272
-474 -23 -85 -26 -116 -26 -257 0 -141 3 -172 25 -256 50 -186 138 -339 271
-473 160 -161 352 -261 569 -296 112 -18 331 -8 433 20 96 26 239 92 326 151
126 85 269 249 341 394 85 170 123 393 99 580 -48 369 -261 663 -592 819 -149
71 -227 88 -414 92 -88 1 -181 -1 -207 -6z m445 -104 c222 -66 406 -202 534
-393 108 -162 156 -323 157 -523 1 -256 -83 -472 -258 -657 -129 -137 -269
-222 -451 -275 -70 -20 -101 -23 -250 -22 -155 0 -178 3 -258 27 -363 112
-618 398 -682 766 -72 407 141 824 515 1011 159 79 260 101 455 96 127 -3 164
-8 238 -30z"/>
<path d="M1150 1481 l0 -291 55 0 55 0 0 99 0 98 85 5 c152 10 221 76 213 203
-5 75 -30 115 -95 146 -39 19 -68 23 -180 27 l-133 5 0 -292z m253 187 c34
-17 46 -39 47 -80 0 -80 -33 -108 -130 -108 l-60 0 0 100 0 100 61 0 c33 0 70
-5 82 -12z"/>
<path d="M360 276 c-6 -8 -10 -25 -8 -38 l3 -23 955 0 955 0 3 24 c8 53 39 51
-964 51 -800 0 -933 -2 -944 -14z"/>
</g>
</svg>
