<?xml version="1.0" standalone="no"?>
<!DOCTYPE svg PUBLIC "-//W3C//DTD SVG 20010904//EN"
 "http://www.w3.org/TR/2001/REC-SVG-20010904/DTD/svg10.dtd">
<svg version="1.0" xmlns="http://www.w3.org/2000/svg"
 width="260.000000pt" height="260.000000pt" viewBox="0 0 260.000000 260.000000"
 preserveAspectRatio="xMidYMid meet">
<metadata>
Created by potrace 1.16, written by Peter Selinger 2001-2019
</metadata>
<g transform="translate(0.000000,260.000000) scale(0.100000,-0.100000)"
fill="#000000" stroke="none">
<path d="M1215 2243 c-463 -57 -799 -407 -841 -873 -12 -141 29 -348 96 -480
96 -189 253 -341 444 -431 146 -68 217 -83 401 -83 144 1 169 3 250 27 284 85
523 300 619 557 53 138 60 185 60 355 -1 144 -3 169 -27 248 -93 304 -312 535
-602 634 -122 41 -286 60 -400 46z m225 -87 c212 -35 392 -135 523 -291 338
-403 250 -994 -190 -1279 -148 -96 -276 -131 -468 -130 -123 0 -151 4 -230 28
-276 84 -489 289 -579 559 -133 396 55 841 434 1032 162 82 337 109 510 81z"/>
<path d="M112 910 l-23 -30 400 -399 399 -399 28 29 28 30 -399 399 c-220 220
-402 400 -406 400 -3 0 -15 -13 -27 -30z"/>
</g>
</svg>
