<?xml version="1.0" standalone="no"?>
<!DOCTYPE svg PUBLIC "-//W3C//DTD SVG 20010904//EN"
 "http://www.w3.org/TR/2001/REC-SVG-20010904/DTD/svg10.dtd">
<svg version="1.0" xmlns="http://www.w3.org/2000/svg"
 width="260.000000pt" height="260.000000pt" viewBox="0 0 260.000000 260.000000"
 preserveAspectRatio="xMidYMid meet">
<metadata>
Created by potrace 1.16, written by Peter Selinger 2001-2019
</metadata>
<g transform="translate(0.000000,260.000000) scale(0.100000,-0.100000)"
fill="#000000" stroke="none">
<path d="M1705 2500 l-29 -31 401 -401 401 -401 26 29 c14 16 26 31 26 34 0 3
-179 184 -398 403 l-398 398 -29 -31z"/>
<path d="M1110 2220 c-349 -76 -620 -338 -711 -688 -12 -44 -23 -126 -26 -192
-32 -692 697 -1183 1324 -890 292 136 478 375 538 693 93 491 -249 987 -745
1081 -109 21 -273 19 -380 -4z m427 -89 c296 -86 509 -298 599 -598 37 -121
40 -316 6 -440 -46 -170 -119 -290 -251 -415 -140 -132 -295 -204 -489 -227
-252 -31 -509 60 -695 245 -113 113 -188 241 -230 394 -16 59 -20 105 -20 215
0 123 3 150 26 228 98 321 332 539 657 612 93 21 302 14 397 -14z"/>
</g>
</svg>
