<?xml version="1.0" standalone="no"?>
<!DOCTYPE svg PUBLIC "-//W3C//DTD SVG 20010904//EN"
 "http://www.w3.org/TR/2001/REC-SVG-20010904/DTD/svg10.dtd">
<svg version="1.0" xmlns="http://www.w3.org/2000/svg"
 width="260.000000pt" height="260.000000pt" viewBox="0 0 260.000000 260.000000"
 preserveAspectRatio="xMidYMid meet">
<metadata>
Created by potrace 1.16, written by Peter Selinger 2001-2019
</metadata>
<g transform="translate(0.000000,260.000000) scale(0.100000,-0.100000)"
fill="#000000" stroke="none">
<path d="M1175 2234 c-11 -2 -51 -11 -88 -20 -271 -62 -504 -255 -628 -518
-208 -444 -29 -983 402 -1215 153 -83 281 -114 459 -114 363 0 691 212 845
547 63 135 80 221 79 396 -1 137 -4 165 -27 241 -14 48 -38 112 -52 144 -84
190 -270 375 -469 465 -121 55 -198 71 -356 75 -80 2 -154 2 -165 -1z m378
-108 c149 -45 263 -114 374 -229 79 -82 128 -154 171 -253 55 -125 66 -185 66
-344 -1 -128 -4 -156 -27 -233 -104 -341 -382 -574 -735 -617 -267 -33 -528
69 -725 281 -88 94 -164 234 -199 364 -30 113 -29 307 1 419 80 300 314 538
604 616 107 28 112 29 252 25 105 -2 147 -8 218 -29z"/>
<path d="M2077 532 l-398 -398 29 -27 29 -28 401 399 400 400 -27 26 c-15 14
-29 26 -32 26 -2 0 -183 -179 -402 -398z"/>
</g>
</svg>
