<?xml version="1.0" standalone="no"?>
<!DOCTYPE svg PUBLIC "-//W3C//DTD SVG 20010904//EN"
 "http://www.w3.org/TR/2001/REC-SVG-20010904/DTD/svg10.dtd">
<svg version="1.0" xmlns="http://www.w3.org/2000/svg"
 width="260.000000pt" height="260.000000pt" viewBox="0 0 260.000000 260.000000"
 preserveAspectRatio="xMidYMid meet">
<metadata>
Created by potrace 1.16, written by Peter Selinger 2001-2019
</metadata>
<g transform="translate(0.000000,260.000000) scale(0.100000,-0.100000)"
fill="#000000" stroke="none">
<path d="M260 1300 l0 -1040 1040 0 1040 0 0 1040 0 1040 -1040 0 -1040 0 0
-1040z m340 957 c0 -1 -58 -61 -130 -132 l-130 -130 0 133 0 132 130 0 c72 0
130 -1 130 -3z m75 -327 l-330 -330 -3 142 -3 142 188 188 188 188 145 0 145
0 -330 -330z m200 -200 l-530 -530 -3 142 -3 142 388 388 388 388 145 0 145 0
-530 -530z m1385 -430 l0 -960 -960 0 -960 0 0 372 0 373 587 587 588 588 372
0 373 0 0 -960z"/>
</g>
</svg>
