<?xml version="1.0" standalone="no"?>
<!DOCTYPE svg PUBLIC "-//W3C//DTD SVG 20010904//EN"
 "http://www.w3.org/TR/2001/REC-SVG-20010904/DTD/svg10.dtd">
<svg version="1.0" xmlns="http://www.w3.org/2000/svg"
 width="260.000000pt" height="260.000000pt" viewBox="0 0 260.000000 260.000000"
 preserveAspectRatio="xMidYMid meet">
<metadata>
Created by potrace 1.16, written by Peter Selinger 2001-2019
</metadata>
<g transform="translate(0.000000,260.000000) scale(0.100000,-0.100000)"
fill="#000000" stroke="none">
<path d="M487 2132 c-218 -218 -397 -402 -397 -408 0 -6 11 -21 25 -34 l26
-24 402 402 402 402 -30 30 -30 30 -398 -398z"/>
<path d="M1146 2229 c-27 -4 -85 -20 -129 -34 -237 -79 -425 -240 -539 -460
-182 -355 -127 -770 142 -1068 113 -125 303 -237 475 -278 169 -41 392 -26
555 38 231 91 437 292 528 516 90 222 94 463 12 688 -112 307 -401 547 -723
599 -72 11 -250 11 -321 -1z m399 -99 c146 -46 243 -101 349 -201 119 -110
210 -265 252 -424 28 -104 26 -314 -4 -417 -69 -244 -221 -433 -437 -545 -339
-175 -737 -112 -1004 160 -80 81 -112 128 -168 244 -59 125 -77 209 -77 363 1
144 21 237 79 359 114 241 336 416 600 475 101 23 315 15 410 -14z"/>
</g>
</svg>
