<?xml version="1.0" standalone="no"?>
<!DOCTYPE svg PUBLIC "-//W3C//DTD SVG 20010904//EN"
 "http://www.w3.org/TR/2001/REC-SVG-20010904/DTD/svg10.dtd">
<svg version="1.0" xmlns="http://www.w3.org/2000/svg"
 width="260.000000pt" height="260.000000pt" viewBox="0 0 260.000000 260.000000"
 preserveAspectRatio="xMidYMid meet">
<metadata>
Created by potrace 1.16, written by Peter Selinger 2001-2019
</metadata>
<g transform="translate(0.000000,260.000000) scale(0.100000,-0.100000)"
fill="#000000" stroke="none">
<path d="M1137 2500 c-399 -71 -718 -367 -830 -768 -18 -66 -21 -104 -21 -257
0 -153 3 -191 21 -257 52 -186 147 -350 276 -477 133 -131 269 -211 452 -267
84 -26 102 -28 275 -28 160 0 195 3 262 21 303 85 544 282 673 548 24 50 56
131 72 180 25 85 27 101 27 280 0 179 -2 195 -27 280 -110 359 -365 613 -723
721 -77 23 -110 27 -249 30 -88 1 -182 -1 -208 -6z m433 -99 c163 -48 337
-155 451 -279 112 -121 202 -297 235 -461 23 -115 15 -334 -16 -441 -93 -325
-352 -581 -676 -671 -100 -27 -307 -37 -408 -19 -403 71 -713 381 -785 784
-14 76 -14 245 0 322 29 166 111 340 221 466 117 136 307 255 473 297 44 11
89 22 100 25 11 3 90 3 175 2 122 -3 171 -8 230 -25z"/>
<path d="M1207 1763 c-4 -3 -7 -134 -7 -290 l0 -283 55 0 55 0 0 115 0 115
110 0 110 0 0 45 0 45 -110 0 -110 0 0 85 0 85 130 0 130 0 0 45 0 45 -178 0
c-98 0 -182 -3 -185 -7z"/>
</g>
</svg>
