<?xml version="1.0" standalone="no"?>
<!DOCTYPE svg PUBLIC "-//W3C//DTD SVG 20010904//EN"
 "http://www.w3.org/TR/2001/REC-SVG-20010904/DTD/svg10.dtd">
<svg version="1.0" xmlns="http://www.w3.org/2000/svg"
 width="260.000000pt" height="260.000000pt" viewBox="0 0 260.000000 260.000000"
 preserveAspectRatio="xMidYMid meet">
<metadata>
Created by potrace 1.16, written by Peter Selinger 2001-2019
</metadata>
<g transform="translate(0.000000,260.000000) scale(0.100000,-0.100000)"
fill="#000000" stroke="none">
<path d="M1100 2491 c-187 -41 -351 -127 -489 -256 -217 -205 -331 -466 -331
-762 0 -288 115 -554 327 -753 125 -118 256 -194 430 -247 81 -25 102 -27 273
-27 164 -1 195 2 270 22 150 41 304 124 427 230 130 110 265 327 312 501 151
554 -178 1130 -734 1281 -116 32 -366 37 -485 11z m469 -90 c353 -103 607
-375 688 -736 25 -115 21 -299 -11 -420 -89 -342 -340 -598 -682 -697 -68 -20
-101 -23 -244 -23 -176 0 -224 9 -360 62 -272 107 -492 357 -572 648 -32 116
-31 364 0 480 97 353 375 617 737 700 94 22 349 13 444 -14z"/>
<path d="M1140 1481 l0 -291 55 0 55 0 0 99 0 98 84 5 c153 10 220 72 214 198
-4 78 -29 120 -91 152 -35 18 -64 22 -179 26 l-138 5 0 -292z m253 188 c30
-14 50 -49 50 -89 0 -70 -39 -100 -133 -100 l-60 0 0 100 0 100 60 0 c32 0 70
-5 83 -11z"/>
<path d="M366 271 c-14 -15 -15 -24 -6 -40 l11 -21 946 2 c888 3 946 4 957 20
8 13 8 23 0 35 -11 17 -68 18 -951 21 -916 2 -940 2 -957 -17z"/>
<path d="M366 74 c-19 -19 -20 -25 -3 -47 11 -16 77 -17 956 -15 886 3 944 4
955 20 8 13 8 23 0 35 -11 17 -68 18 -952 21 -845 2 -942 1 -956 -14z"/>
</g>
</svg>
