<?xml version="1.0" standalone="no"?>
<!DOCTYPE svg PUBLIC "-//W3C//DTD SVG 20010904//EN"
 "http://www.w3.org/TR/2001/REC-SVG-20010904/DTD/svg10.dtd">
<svg version="1.0" xmlns="http://www.w3.org/2000/svg"
 width="260.000000pt" height="260.000000pt" viewBox="0 0 260.000000 260.000000"
 preserveAspectRatio="xMidYMid meet">
<metadata>
Created by potrace 1.16, written by Peter Selinger 2001-2019
</metadata>
<g transform="translate(0.000000,260.000000) scale(0.100000,-0.100000)"
fill="#000000" stroke="none">
<path d="M270 1300 l0 -1040 1040 0 1040 0 0 1040 0 1040 -1040 0 -1040 0 0
-1040z m2000 0 l0 -960 -960 0 -960 0 0 960 0 960 960 0 960 0 0 -960z"/>
<path d="M810 1300 l0 -40 500 0 500 0 0 40 0 40 -500 0 -500 0 0 -40z"/>
</g>
</svg>
