<?xml version="1.0" standalone="no"?>
<!DOCTYPE svg PUBLIC "-//W3C//DTD SVG 20010904//EN"
 "http://www.w3.org/TR/2001/REC-SVG-20010904/DTD/svg10.dtd">
<svg version="1.0" xmlns="http://www.w3.org/2000/svg"
 width="260.000000pt" height="260.000000pt" viewBox="0 0 260.000000 260.000000"
 preserveAspectRatio="xMidYMid meet">
<metadata>
Created by potrace 1.16, written by Peter Selinger 2001-2019
</metadata>
<g transform="translate(0.000000,260.000000) scale(0.100000,-0.100000)"
fill="#000000" stroke="none">
<path d="M1121 2495 c-330 -75 -585 -271 -726 -560 -169 -344 -143 -725 71
-1046 127 -192 336 -342 579 -416 84 -25 102 -27 275 -27 159 0 196 3 263 22
176 49 325 133 455 256 142 135 237 292 289 482 25 90 28 114 28 269 0 184
-14 262 -71 399 -97 230 -305 445 -529 547 -139 63 -225 81 -405 85 -119 3
-183 0 -229 -11z m389 -79 c150 -32 290 -98 409 -192 156 -123 265 -287 327
-490 25 -81 28 -103 28 -254 0 -139 -4 -177 -22 -245 -94 -339 -350 -594 -697
-691 -37 -10 -113 -18 -200 -21 -161 -5 -268 13 -400 67 -496 207 -727 796
-502 1283 128 277 378 477 673 541 89 19 300 20 384 2z"/>
<path d="M1180 1480 l0 -290 55 0 55 0 0 115 0 114 108 3 107 3 3 43 3 42
-110 0 -111 0 0 85 0 85 131 0 130 0 -3 43 -3 42 -182 3 -183 2 0 -290z"/>
<path d="M378 279 c-21 -12 -23 -40 -6 -57 9 -9 235 -12 955 -12 921 0 943 0
953 19 13 25 13 27 -6 45 -14 14 -113 16 -947 16 -614 -1 -938 -4 -949 -11z"/>
</g>
</svg>
