<?xml version="1.0" standalone="no"?>
<!DOCTYPE svg PUBLIC "-//W3C//DTD SVG 20010904//EN"
 "http://www.w3.org/TR/2001/REC-SVG-20010904/DTD/svg10.dtd">
<svg version="1.0" xmlns="http://www.w3.org/2000/svg"
 width="260.000000pt" height="260.000000pt" viewBox="0 0 260.000000 260.000000"
 preserveAspectRatio="xMidYMid meet">
<metadata>
Created by potrace 1.16, written by Peter Selinger 2001-2019
</metadata>
<g transform="translate(0.000000,260.000000) scale(0.100000,-0.100000)"
fill="#000000" stroke="none">
<path d="M1120 2495 c-447 -90 -782 -457 -831 -913 -53 -488 245 -942 716
-1095 113 -37 182 -47 316 -47 295 0 553 110 755 321 299 314 369 792 174
1179 -144 286 -422 497 -729 554 -100 19 -309 20 -401 1z m464 -99 c332 -100
581 -357 666 -686 117 -458 -132 -948 -572 -1123 -133 -54 -228 -70 -383 -64
-260 8 -449 86 -634 262 -130 124 -222 279 -268 453 -37 139 -37 335 0 473 25
97 85 227 140 309 79 115 232 248 362 312 155 77 257 99 450 94 127 -3 164 -7
239 -30z"/>
<path d="M1187 1763 c-4 -3 -7 -134 -7 -290 l0 -283 55 0 55 0 0 115 0 115
110 0 110 0 0 45 0 45 -110 0 -110 0 0 85 0 85 130 0 130 0 0 45 0 45 -178 0
c-98 0 -182 -3 -185 -7z"/>
<path d="M370 275 c-7 -8 -10 -25 -6 -40 l6 -25 953 2 952 3 3 23 c8 55 56 52
-958 52 -818 0 -939 -2 -950 -15z"/>
<path d="M372 78 c-16 -16 -15 -43 2 -57 10 -8 268 -10 957 -9 l944 3 3 23 c8
55 56 52 -957 52 -715 0 -940 -3 -949 -12z"/>
</g>
</svg>
