<?xml version="1.0" standalone="no"?>
<!DOCTYPE svg PUBLIC "-//W3C//DTD SVG 20010904//EN"
 "http://www.w3.org/TR/2001/REC-SVG-20010904/DTD/svg10.dtd">
<svg version="1.0" xmlns="http://www.w3.org/2000/svg"
 width="260.000000pt" height="260.000000pt" viewBox="0 0 260.000000 260.000000"
 preserveAspectRatio="xMidYMid meet">
<metadata>
Created by potrace 1.16, written by Peter Selinger 2001-2019
</metadata>
<g transform="translate(0.000000,260.000000) scale(0.100000,-0.100000)"
fill="#000000" stroke="none">
<path d="M933 2302 c-87 -70 -201 -163 -253 -205 -103 -84 -130 -121 -130
-180 0 -100 102 -178 192 -148 18 6 67 33 108 60 44 30 76 45 78 38 3 -14 -76
-388 -83 -395 -3 -3 -5 3 -5 14 0 15 -24 32 -101 69 -96 48 -104 50 -182 50
-90 -1 -121 -13 -242 -94 -53 -36 -61 -39 -67 -23 -4 9 -21 89 -39 177 -17 88
-36 166 -42 173 -13 17 -47 12 -60 -9 -11 -17 285 -1493 305 -1516 8 -11 174
-13 887 -13 482 0 881 4 887 8 12 7 35 114 220 1025 100 490 102 507 62 515
-31 6 -45 -29 -77 -189 -19 -90 -36 -170 -40 -176 -5 -9 -24 0 -66 28 -124 83
-152 94 -245 94 -80 0 -89 -3 -169 -43 -45 -24 -85 -41 -88 -38 -2 2 15 98 39
213 25 114 43 216 40 225 -6 25 -41 33 -59 15 -10 -9 -48 -166 -99 -409 -46
-216 -88 -403 -93 -415 -19 -41 -101 -22 -101 22 0 8 25 132 56 276 31 145 53
272 50 285 -7 27 -46 33 -64 12 -5 -7 -33 -123 -61 -258 -28 -135 -62 -292
-75 -349 -24 -106 -39 -131 -78 -131 -23 0 -71 47 -65 63 2 7 32 149 67 316
47 223 61 307 53 320 -13 21 -47 26 -60 9 -6 -7 -39 -150 -74 -318 -53 -255
-67 -309 -86 -328 -26 -26 -54 -23 -87 9 -20 18 -19 23 52 361 40 189 72 355
72 370 0 45 -65 49 -75 4 -3 -11 -32 -149 -65 -306 -33 -157 -63 -293 -66
-303 -13 -42 -82 -44 -110 -2 -13 19 -6 58 66 400 84 393 85 405 39 405 -11 0
-78 -38 -151 -85 -72 -47 -135 -85 -140 -85 -5 0 -22 7 -38 15 -33 17 -47 56
-33 88 6 12 121 112 257 222 208 170 246 204 246 226 0 24 -15 39 -40 39 -5 0
-80 -58 -167 -128z m-232 -818 c78 -38 98 -45 119 -37 l26 10 -23 -106 c-13
-61 -21 -120 -17 -140 12 -71 61 -111 140 -114 40 -2 45 -5 55 -34 20 -63 109
-105 175 -83 31 10 37 9 64 -13 33 -28 94 -42 140 -32 39 8 87 56 95 95 6 29
8 30 43 23 117 -23 166 20 197 175 41 210 45 222 69 216 14 -3 55 11 116 40
100 49 152 57 216 33 46 -17 214 -130 214 -143 0 -7 -45 -231 -100 -499 -55
-269 -100 -490 -100 -492 0 -1 -373 -3 -830 -3 -456 0 -830 3 -830 6 0 4 -45
229 -101 501 -55 272 -99 496 -97 497 59 42 185 120 210 131 62 27 116 19 219
-31z"/>
</g>
</svg>
