<?xml version="1.0" standalone="no"?>
<!DOCTYPE svg PUBLIC "-//W3C//DTD SVG 20010904//EN"
 "http://www.w3.org/TR/2001/REC-SVG-20010904/DTD/svg10.dtd">
<svg version="1.0" xmlns="http://www.w3.org/2000/svg"
 width="260.000000pt" height="260.000000pt" viewBox="0 0 260.000000 260.000000"
 preserveAspectRatio="xMidYMid meet">
<metadata>
Created by potrace 1.16, written by Peter Selinger 2001-2019
</metadata>
<g transform="translate(0.000000,260.000000) scale(0.100000,-0.100000)"
fill="#000000" stroke="none">
<path d="M260 1310 l0 -1040 1035 0 1035 0 0 1040 0 1040 -1035 0 -1035 0 0
-1040z m330 952 c0 -6 -22 -28 -89 -86 l-22 -20 -49 49 c-27 27 -47 52 -44 57
6 10 204 11 204 0z m400 3 c0 -3 -64 -68 -142 -146 l-142 -140 -67 46 c-106
72 -106 64 -7 161 l85 84 137 0 c75 0 136 -2 136 -5z m1214 -4 c8 -12 -157
-169 -236 -224 -149 -106 -328 -175 -528 -204 -177 -25 -382 -1 -561 66 -105
40 -109 27 74 209 l163 162 542 0 c297 0 543 -4 546 -9z m-1819 -206 c-20 -19
-39 -35 -41 -35 -2 0 -4 36 -4 80 l0 80 42 -46 41 -45 -38 -34z m1865 -790 l0
-915 -955 0 -955 0 0 572 0 573 191 191 190 190 107 -42 c304 -122 637 -121
941 2 153 62 335 185 431 292 25 27 46 50 48 51 1 1 2 -411 2 -914z m-1682
710 l80 -55 -151 -152 -152 -153 -3 140 -3 139 68 68 c37 37 71 68 74 68 4 0
43 -25 87 -55z"/>
</g>
</svg>
