<?xml version="1.0" standalone="no"?>
<!DOCTYPE svg PUBLIC "-//W3C//DTD SVG 20010904//EN"
 "http://www.w3.org/TR/2001/REC-SVG-20010904/DTD/svg10.dtd">
<svg version="1.0" xmlns="http://www.w3.org/2000/svg"
 width="260.000000pt" height="260.000000pt" viewBox="0 0 260.000000 260.000000"
 preserveAspectRatio="xMidYMid meet">
<metadata>
Created by potrace 1.16, written by Peter Selinger 2001-2019
</metadata>
<g transform="translate(0.000000,260.000000) scale(0.100000,-0.100000)"
fill="#000000" stroke="none">
<path d="M277 2473 c-4 -3 -7 -471 -7 -1040 l0 -1033 1040 0 1040 0 0 1040 0
1040 -1033 0 c-569 0 -1037 -3 -1040 -7z m1993 -1033 l0 -960 -960 0 -960 0 0
953 c0 525 3 957 7 960 3 4 435 7 960 7 l953 0 0 -960z"/>
<path d="M1130 2366 c-365 -78 -645 -346 -736 -706 -29 -114 -27 -356 4 -465
111 -392 437 -661 848 -700 138 -13 350 28 479 92 401 201 607 636 505 1071
-77 327 -327 590 -655 688 -76 22 -113 27 -235 30 -97 2 -166 -1 -210 -10z
m430 -101 c243 -77 426 -237 536 -468 103 -217 105 -492 5 -711 -180 -398
-625 -600 -1041 -474 -285 87 -510 325 -586 623 -23 90 -25 113 -20 230 6 148
21 214 77 333 116 250 335 426 604 486 110 25 315 15 425 -19z"/>
<path d="M855 1554 c-125 -63 -78 -244 64 -244 37 0 49 6 82 39 34 34 39 44
39 86 0 100 -98 163 -185 119z m87 -81 c33 -30 17 -83 -26 -83 -23 0 -56 27
-56 47 0 16 36 53 52 53 6 0 20 -7 30 -17z"/>
<path d="M1255 1554 c-125 -63 -78 -244 64 -244 37 0 49 6 82 39 34 34 39 44
39 86 0 100 -98 163 -185 119z m87 -81 c33 -30 17 -83 -26 -83 -23 0 -56 27
-56 47 0 16 36 53 52 53 6 0 20 -7 30 -17z"/>
<path d="M1655 1554 c-125 -63 -78 -244 64 -244 37 0 49 6 82 39 34 34 39 44
39 86 0 100 -98 163 -185 119z m87 -81 c33 -30 17 -83 -26 -83 -23 0 -56 27
-56 47 0 16 36 53 52 53 6 0 20 -7 30 -17z"/>
</g>
</svg>
