<?xml version="1.0" standalone="no"?>
<!DOCTYPE svg PUBLIC "-//W3C//DTD SVG 20010904//EN"
 "http://www.w3.org/TR/2001/REC-SVG-20010904/DTD/svg10.dtd">
<svg version="1.0" xmlns="http://www.w3.org/2000/svg"
 width="260.000000pt" height="260.000000pt" viewBox="0 0 260.000000 260.000000"
 preserveAspectRatio="xMidYMid meet">
<metadata>
Created by potrace 1.16, written by Peter Selinger 2001-2019
</metadata>
<g transform="translate(0.000000,260.000000) scale(0.100000,-0.100000)"
fill="#000000" stroke="none">
<path d="M1136 1867 c-11 -8 -17 -22 -14 -38 l3 -24 452 -3 452 -2 12 -43 c23
-89 120 -443 125 -459 5 -17 -37 -18 -779 -18 -489 0 -804 -4 -838 -10 -109
-21 -210 -95 -249 -184 -28 -61 -202 -704 -198 -729 l3 -22 1189 0 c1065 0
1190 2 1199 16 7 11 -38 189 -163 650 -95 349 -187 688 -205 754 l-32 120
-470 3 c-375 2 -473 0 -487 -11z m1162 -1059 c58 -213 103 -390 100 -393 -2
-3 -500 -4 -1105 -3 l-1100 3 82 300 c45 165 91 319 103 341 12 23 40 58 62
77 79 67 56 66 949 64 l804 -2 105 -387z"/>
</g>
</svg>
