<?xml version="1.0" standalone="no"?>
<!DOCTYPE svg PUBLIC "-//W3C//DTD SVG 20010904//EN"
 "http://www.w3.org/TR/2001/REC-SVG-20010904/DTD/svg10.dtd">
<svg version="1.0" xmlns="http://www.w3.org/2000/svg"
 width="260.000000pt" height="260.000000pt" viewBox="0 0 260.000000 260.000000"
 preserveAspectRatio="xMidYMid meet">
<metadata>
Created by potrace 1.16, written by Peter Selinger 2001-2019
</metadata>
<g transform="translate(0.000000,260.000000) scale(0.100000,-0.100000)"
fill="#000000" stroke="none">
<path d="M1146 1864 c-20 -19 -20 -38 -3 -53 10 -7 150 -12 458 -13 l444 -3
67 -240 c36 -132 67 -248 67 -257 1 -16 -51 -18 -816 -20 l-818 -3 -56 -26
c-68 -32 -129 -86 -163 -143 -38 -64 -221 -743 -205 -762 10 -12 187 -14 1195
-14 1121 0 1184 1 1193 18 7 12 -14 101 -74 322 -45 168 -138 509 -206 758
l-123 452 -472 0 c-416 0 -474 -2 -488 -16z m1064 -686 c9 -20 210 -753 210
-764 0 -2 -497 -4 -1105 -4 -608 0 -1105 3 -1105 6 0 3 38 145 85 315 91 334
109 375 182 420 76 47 81 48 926 48 l797 1 10 -22z"/>
<path d="M1049 907 c-123 -83 -27 -274 115 -227 55 18 86 62 86 122 0 45 -4
54 -39 89 -33 34 -45 39 -83 39 -30 0 -56 -8 -79 -23z m109 -69 c28 -28 2 -88
-38 -88 -11 0 -27 11 -36 25 -15 23 -15 27 0 50 18 27 54 33 74 13z"/>
<path d="M1469 913 c-85 -52 -78 -182 11 -228 40 -21 76 -19 121 7 86 48 85
178 -2 224 -37 19 -98 17 -130 -3z m105 -85 c9 -12 16 -26 16 -30 0 -13 -39
-48 -54 -48 -37 0 -61 61 -34 88 19 19 55 14 72 -10z"/>
</g>
</svg>
