<?xml version="1.0" standalone="no"?>
<!DOCTYPE svg PUBLIC "-//W3C//DTD SVG 20010904//EN"
 "http://www.w3.org/TR/2001/REC-SVG-20010904/DTD/svg10.dtd">
<svg version="1.0" xmlns="http://www.w3.org/2000/svg"
 width="260.000000pt" height="260.000000pt" viewBox="0 0 260.000000 260.000000"
 preserveAspectRatio="xMidYMid meet">
<metadata>
Created by potrace 1.16, written by Peter Selinger 2001-2019
</metadata>
<g transform="translate(0.000000,260.000000) scale(0.100000,-0.100000)"
fill="#000000" stroke="none">
<path d="M1146 1864 c-9 -8 -16 -21 -16 -27 1 -36 7 -37 464 -39 l449 -3 68
-250 c38 -137 69 -253 69 -257 0 -5 -353 -8 -784 -8 -459 0 -804 -4 -834 -10
-109 -20 -199 -86 -245 -177 -13 -26 -66 -202 -117 -390 -78 -285 -91 -345
-80 -358 11 -13 137 -15 1199 -13 l1186 3 3 23 c3 17 -292 1126 -387 1457
l-17 60 -471 3 c-419 2 -473 0 -487 -14z m1166 -1059 c59 -214 107 -391 108
-392 0 -2 -497 -3 -1105 -3 -803 0 -1105 3 -1105 11 0 23 163 605 177 634 20
40 61 83 98 103 78 41 78 41 915 39 l805 -2 107 -390z"/>
<path d="M1240 908 c-72 -49 -77 -160 -9 -209 92 -66 209 -5 209 109 0 34 -6
49 -33 78 -28 30 -42 37 -83 41 -40 4 -55 0 -84 -19z m101 -68 c24 -14 25 -52
0 -74 -26 -23 -52 -17 -70 16 -14 24 -14 28 3 47 21 23 38 26 67 11z"/>
</g>
</svg>
