<?xml version="1.0" standalone="no"?>
<!DOCTYPE svg PUBLIC "-//W3C//DTD SVG 20010904//EN"
 "http://www.w3.org/TR/2001/REC-SVG-20010904/DTD/svg10.dtd">
<svg version="1.0" xmlns="http://www.w3.org/2000/svg"
 width="260.000000pt" height="260.000000pt" viewBox="0 0 260.000000 260.000000"
 preserveAspectRatio="xMidYMid meet">
<metadata>
Created by potrace 1.16, written by Peter Selinger 2001-2019
</metadata>
<g transform="translate(0.000000,260.000000) scale(0.100000,-0.100000)"
fill="#000000" stroke="none">
<path d="M1150 1866 c-6 -8 -10 -25 -8 -38 l3 -23 451 -3 451 -2 70 -258 70
-257 -816 -5 c-591 -4 -825 -9 -849 -17 -89 -32 -162 -94 -202 -172 -26 -52
-202 -699 -198 -731 l3 -25 1186 -3 c1043 -2 1188 0 1199 13 13 16 23 -24
-265 1035 -62 228 -118 434 -124 458 l-12 42 -473 0 c-401 0 -475 -2 -486 -14z
m1070 -707 c6 -22 54 -196 106 -387 52 -190 94 -350 94 -354 0 -4 -498 -8
-1106 -8 -895 0 -1105 2 -1101 13 2 7 32 116 66 242 110 410 116 425 204 487
64 46 77 47 924 47 l802 1 11 -41z"/>
<path d="M849 913 c-60 -37 -79 -134 -37 -188 23 -29 74 -55 109 -55 38 0 85
30 107 69 26 45 27 69 8 116 -28 66 -126 96 -187 58z m105 -85 c9 -12 16 -26
16 -30 0 -13 -39 -48 -54 -48 -40 0 -62 70 -28 89 27 16 50 13 66 -11z"/>
<path d="M1249 913 c-60 -37 -79 -134 -37 -188 23 -29 74 -55 109 -55 38 0 85
30 107 69 26 45 27 69 8 116 -28 66 -126 96 -187 58z m105 -85 c9 -12 16 -26
16 -30 0 -13 -39 -48 -54 -48 -40 0 -62 70 -28 89 27 16 50 13 66 -11z"/>
<path d="M1649 913 c-60 -37 -79 -134 -37 -188 23 -29 74 -55 109 -55 38 0 85
30 107 69 26 45 27 69 8 116 -28 66 -126 96 -187 58z m105 -85 c9 -12 16 -26
16 -30 0 -13 -39 -48 -54 -48 -40 0 -62 70 -28 89 27 16 50 13 66 -11z"/>
</g>
</svg>
