<?xml version="1.0" standalone="no"?>
<!DOCTYPE svg PUBLIC "-//W3C//DTD SVG 20010904//EN"
 "http://www.w3.org/TR/2001/REC-SVG-20010904/DTD/svg10.dtd">
<svg version="1.0" xmlns="http://www.w3.org/2000/svg"
 width="260.000000pt" height="260.000000pt" viewBox="0 0 260.000000 260.000000"
 preserveAspectRatio="xMidYMid meet">
<metadata>
Created by potrace 1.16, written by Peter Selinger 2001-2019
</metadata>
<g transform="translate(0.000000,260.000000) scale(0.100000,-0.100000)"
fill="#000000" stroke="none">
<path d="M260 1310 l0 -1040 1040 0 1040 0 -2 1038 -3 1037 -1037 3 -1038 2 0
-1040z m330 952 c0 -4 -56 -63 -125 -132 l-125 -125 0 133 0 132 125 0 c69 0
125 -3 125 -8z m400 0 c0 -4 -146 -153 -325 -332 l-325 -325 0 142 0 141 190
191 190 191 135 0 c74 0 135 -3 135 -8z m1268 -954 l2 -958 -960 0 -960 0 0
569 0 569 391 391 390 391 567 -2 567 -3 3 -957z"/>
<path d="M800 1310 l0 -40 500 0 500 0 0 40 0 40 -500 0 -500 0 0 -40z"/>
</g>
</svg>
