<?xml version="1.0" standalone="no"?>
<!DOCTYPE svg PUBLIC "-//W3C//DTD SVG 20010904//EN"
 "http://www.w3.org/TR/2001/REC-SVG-20010904/DTD/svg10.dtd">
<svg version="1.0" xmlns="http://www.w3.org/2000/svg"
 width="260.000000pt" height="260.000000pt" viewBox="0 0 260.000000 260.000000"
 preserveAspectRatio="xMidYMid meet">
<metadata>
Created by potrace 1.16, written by Peter Selinger 2001-2019
</metadata>
<g transform="translate(0.000000,260.000000) scale(0.100000,-0.100000)"
fill="#000000" stroke="none">
<path d="M277 2473 c-4 -3 -7 -471 -7 -1040 l0 -1033 1040 0 1040 0 0 1040 0
1040 -1033 0 c-569 0 -1037 -3 -1040 -7z m1993 -1033 l0 -960 -960 0 -960 0 0
953 c0 525 3 957 7 960 3 4 435 7 960 7 l953 0 0 -960z"/>
<path d="M1170 2374 c-324 -62 -574 -250 -710 -535 -66 -138 -83 -220 -84
-394 -1 -202 32 -331 123 -484 130 -218 353 -383 596 -442 105 -26 290 -30
395 -10 360 70 654 349 740 702 82 338 -18 674 -271 915 -111 105 -232 174
-386 220 -74 22 -111 27 -233 29 -80 2 -156 1 -170 -1z m314 -89 c366 -76 641
-375 688 -752 37 -292 -100 -604 -344 -788 -169 -127 -406 -191 -610 -165
-322 42 -575 233 -701 530 -209 493 93 1061 623 1174 87 19 254 19 344 1z"/>
<path d="M1255 1554 c-125 -64 -78 -244 64 -244 37 0 49 6 82 39 33 33 39 45
39 82 0 103 -98 168 -185 123z m87 -81 c33 -30 17 -83 -26 -83 -23 0 -56 27
-56 47 0 16 36 53 52 53 6 0 20 -7 30 -17z"/>
</g>
</svg>
