<?xml version="1.0" standalone="no"?>
<!DOCTYPE svg PUBLIC "-//W3C//DTD SVG 20010904//EN"
 "http://www.w3.org/TR/2001/REC-SVG-20010904/DTD/svg10.dtd">
<svg version="1.0" xmlns="http://www.w3.org/2000/svg"
 width="260.000000pt" height="260.000000pt" viewBox="0 0 260.000000 260.000000"
 preserveAspectRatio="xMidYMid meet">
<metadata>
Created by potrace 1.16, written by Peter Selinger 2001-2019
</metadata>
<g transform="translate(0.000000,260.000000) scale(0.100000,-0.100000)"
fill="#000000" stroke="none">
<path d="M117 1863 c-13 -12 -7 -57 27 -228 47 -227 191 -931 210 -1024 9 -41
21 -78 28 -83 7 -4 423 -8 925 -8 815 0 913 2 927 16 9 8 16 19 16 23 0 4 9
52 21 106 41 201 171 836 204 999 35 176 35 206 -4 206 -10 0 -24 -6 -30 -13
-6 -8 -27 -90 -46 -183 -20 -93 -37 -172 -38 -176 -1 -5 -42 19 -92 52 -103
69 -134 80 -225 80 -59 0 -77 -6 -180 -55 -157 -75 -182 -75 -345 3 -119 56
-121 57 -210 57 -89 0 -91 0 -207 -57 -156 -77 -181 -78 -333 -6 -92 44 -121
53 -178 56 -93 6 -142 -11 -243 -79 -52 -36 -86 -54 -89 -46 -2 7 -18 82 -35
167 -37 187 -42 200 -73 200 -13 0 -27 -3 -30 -7z m1360 -360 l118 -58 95 0
c94 1 96 1 200 54 100 50 108 52 171 49 62 -3 72 -7 164 -68 54 -36 101 -67
106 -70 4 -3 -21 -149 -57 -325 -36 -176 -73 -357 -82 -402 l-16 -83 -868 0
-867 0 -10 38 c-16 66 -151 736 -151 753 0 15 125 105 197 143 18 9 56 16 87
16 45 0 73 -9 163 -52 107 -53 109 -53 203 -53 l95 1 114 57 c155 78 179 78
338 0z"/>
<path d="M350 381 c-13 -26 -3 -50 24 -56 11 -3 439 -4 950 -3 872 3 929 4
940 20 8 13 8 23 0 35 -11 17 -69 18 -957 21 -926 2 -946 2 -957 -17z"/>
<path d="M350 181 c-13 -25 -13 -27 6 -45 14 -14 113 -16 945 -16 622 0 937 3
950 10 21 12 25 40 7 58 -9 9 -235 12 -955 12 -921 0 -943 0 -953 -19z"/>
</g>
</svg>
