<?xml version="1.0" standalone="no"?>
<!DOCTYPE svg PUBLIC "-//W3C//DTD SVG 20010904//EN"
 "http://www.w3.org/TR/2001/REC-SVG-20010904/DTD/svg10.dtd">
<svg version="1.0" xmlns="http://www.w3.org/2000/svg"
 width="260.000000pt" height="260.000000pt" viewBox="0 0 260.000000 260.000000"
 preserveAspectRatio="xMidYMid meet">
<metadata>
Created by potrace 1.16, written by Peter Selinger 2001-2019
</metadata>
<g transform="translate(0.000000,260.000000) scale(0.100000,-0.100000)"
fill="#000000" stroke="none">
<path d="M115 1844 c-10 -11 -14 -25 -11 -40 7 -28 51 -241 191 -929 58 -286
109 -530 115 -542 l10 -23 885 0 885 0 10 23 c5 12 75 342 154 734 80 391 148
722 151 736 7 26 -15 57 -40 57 -26 0 -42 -44 -75 -210 -18 -91 -34 -166 -35
-168 -2 -2 -43 23 -92 56 -159 104 -235 108 -415 21 -151 -74 -176 -73 -340 6
-118 58 -125 60 -203 60 -77 0 -84 -2 -205 -60 -165 -79 -187 -79 -341 -5
-178 86 -253 82 -412 -22 -49 -33 -90 -58 -92 -56 -1 2 -17 77 -35 168 -41
205 -59 239 -105 194z m1376 -360 c115 -55 129 -59 194 -59 65 0 80 4 178 52
178 87 217 85 371 -17 l104 -68 -79 -384 c-43 -210 -88 -435 -101 -498 l-24
-115 -829 0 -829 0 -12 60 c-7 33 -53 257 -102 498 l-90 438 104 69 c155 102
193 104 371 17 98 -48 113 -52 178 -52 64 0 80 5 190 57 153 72 141 68 201 65
38 -3 83 -19 175 -63z"/>
</g>
</svg>
