<?xml version="1.0" standalone="no"?>
<!DOCTYPE svg PUBLIC "-//W3C//DTD SVG 20010904//EN"
 "http://www.w3.org/TR/2001/REC-SVG-20010904/DTD/svg10.dtd">
<svg version="1.0" xmlns="http://www.w3.org/2000/svg"
 width="260.000000pt" height="260.000000pt" viewBox="0 0 260.000000 260.000000"
 preserveAspectRatio="xMidYMid meet">
<metadata>
Created by potrace 1.16, written by Peter Selinger 2001-2019
</metadata>
<g transform="translate(0.000000,260.000000) scale(0.100000,-0.100000)"
fill="#000000" stroke="none">
<path d="M110 1845 c-11 -14 30 -232 205 -1075 19 -91 46 -225 62 -299 15 -73
33 -140 41 -147 11 -12 159 -14 886 -14 761 0 875 2 886 15 7 8 25 77 41 152
169 819 269 1323 267 1348 -2 24 -8 31 -30 33 -36 4 -39 -5 -78 -198 -17 -85
-33 -160 -35 -167 -2 -7 -39 12 -92 47 -108 71 -145 83 -236 78 -62 -3 -88
-11 -182 -56 -154 -73 -180 -72 -345 9 -125 60 -125 60 -205 57 -74 -3 -89 -8
-200 -61 -163 -77 -188 -77 -345 -2 -104 50 -121 55 -182 55 -84 0 -140 -21
-238 -89 -41 -28 -76 -48 -77 -44 -2 4 -18 84 -37 176 -19 93 -40 175 -47 183
-15 18 -43 18 -59 -1z m1365 -352 c119 -57 121 -58 210 -58 89 0 92 1 195 53
86 43 113 52 156 52 69 0 91 -9 202 -82 l94 -62 -7 -40 c-5 -38 -178 -893
-190 -944 l-5 -22 -828 2 -827 3 -32 155 c-144 697 -172 844 -164 849 4 3 52
35 106 71 90 59 102 65 161 68 60 4 70 1 176 -49 111 -53 115 -54 203 -54 89
0 91 0 205 57 158 78 182 78 345 1z"/>
<path d="M326 174 c-19 -19 -20 -25 -3 -47 11 -16 79 -17 986 -15 915 3 974 4
985 20 8 13 8 23 0 35 -11 17 -70 18 -982 21 -872 2 -972 1 -986 -14z"/>
</g>
</svg>
