<?xml version="1.0" standalone="no"?>
<!DOCTYPE svg PUBLIC "-//W3C//DTD SVG 20010904//EN"
 "http://www.w3.org/TR/2001/REC-SVG-20010904/DTD/svg10.dtd">
<svg version="1.0" xmlns="http://www.w3.org/2000/svg"
 width="260.000000pt" height="260.000000pt" viewBox="0 0 260.000000 260.000000"
 preserveAspectRatio="xMidYMid meet">
<metadata>
Created by potrace 1.16, written by Peter Selinger 2001-2019
</metadata>
<g transform="translate(0.000000,260.000000) scale(0.100000,-0.100000)"
fill="#000000" stroke="none">
<path d="M270 1440 l0 -1040 1040 0 1040 0 -2 1038 -3 1037 -1037 3 -1038 2 0
-1040z m1998 -2 l2 -958 -960 0 -960 0 0 960 0 960 958 -2 957 -3 3 -957z"/>
<path d="M1116 2364 c-365 -79 -650 -362 -732 -729 -28 -122 -24 -301 10 -430
128 -496 621 -798 1121 -688 334 74 603 327 701 660 32 110 43 294 24 410 -64
398 -374 712 -774 782 -84 15 -268 12 -350 -5z m361 -80 c266 -55 481 -221
606 -469 54 -106 78 -203 84 -337 6 -125 -3 -196 -39 -308 -66 -206 -223 -391
-417 -493 -239 -125 -495 -136 -742 -32 -253 106 -438 331 -505 610 -25 102
-22 286 5 390 76 291 300 529 581 615 52 16 109 31 125 33 77 10 232 6 302 -9z"/>
<path d="M1041 1552 c-37 -20 -71 -73 -71 -110 0 -129 179 -182 244 -72 37 63
7 158 -59 186 -46 19 -73 18 -114 -4z m93 -81 c41 -46 -18 -107 -64 -66 -26
24 -25 50 2 69 29 21 41 20 62 -3z"/>
<path d="M1450 1548 c-113 -76 -69 -238 65 -238 75 0 128 54 128 132 0 97
-114 159 -193 106z m91 -68 c22 -12 26 -59 7 -78 -19 -19 -55 -14 -72 10 -20
29 -20 34 4 58 23 23 33 24 61 10z"/>
</g>
</svg>
