<?xml version="1.0" standalone="no"?>
<!DOCTYPE svg PUBLIC "-//W3C//DTD SVG 20010904//EN"
 "http://www.w3.org/TR/2001/REC-SVG-20010904/DTD/svg10.dtd">
<svg version="1.0" xmlns="http://www.w3.org/2000/svg"
 width="260.000000pt" height="260.000000pt" viewBox="0 0 260.000000 260.000000"
 preserveAspectRatio="xMidYMid meet">
<metadata>
Created by potrace 1.16, written by Peter Selinger 2001-2019
</metadata>
<g transform="translate(0.000000,260.000000) scale(0.100000,-0.100000)"
fill="#000000" stroke="none">
<path d="M270 1440 l0 -1040 1035 0 1035 0 0 1040 0 1040 -1035 0 -1035 0 0
-1040z m1990 0 l0 -960 -955 0 -955 0 0 960 0 960 955 0 955 0 0 -960z"/>
<path d="M1240 2343 c-79 -8 -167 -25 -224 -45 -317 -108 -556 -391 -607 -718
-18 -114 -7 -286 26 -395 94 -318 335 -546 665 -631 100 -26 316 -26 410 0
279 75 484 236 605 477 80 157 113 372 86 549 -43 277 -220 524 -473 659 -99
53 -183 79 -308 96 -105 15 -114 15 -180 8z"/>
</g>
</svg>
