<?xml version="1.0" standalone="no"?>
<!DOCTYPE svg PUBLIC "-//W3C//DTD SVG 20010904//EN"
 "http://www.w3.org/TR/2001/REC-SVG-20010904/DTD/svg10.dtd">
<svg version="1.0" xmlns="http://www.w3.org/2000/svg"
 width="260.000000pt" height="260.000000pt" viewBox="0 0 260.000000 260.000000"
 preserveAspectRatio="xMidYMid meet">
<metadata>
Created by potrace 1.16, written by Peter Selinger 2001-2019
</metadata>
<g transform="translate(0.000000,260.000000) scale(0.100000,-0.100000)"
fill="#000000" stroke="none">
<path d="M1283 2231 c-132 -61 -131 -257 2 -321 71 -34 144 -24 198 28 41 39
57 74 57 127 0 140 -129 224 -257 166z m154 -96 c25 -28 30 -82 13 -116 -13
-23 -61 -49 -93 -49 -32 0 -71 32 -87 70 -15 37 0 80 39 111 35 28 97 21 128
-16z"/>
<path d="M122 1968 c-17 -17 -17 -16 33 -256 24 -120 92 -451 150 -737 78
-385 110 -523 122 -532 25 -19 1756 -19 1771 0 19 23 316 1499 305 1516 -13
21 -47 26 -60 9 -6 -7 -21 -62 -33 -123 -12 -60 -28 -140 -37 -177 l-15 -68
-75 51 c-111 75 -146 89 -233 89 -59 0 -86 -5 -129 -25 l-54 -26 -45 21 c-93
44 -187 46 -289 5 -39 -16 -43 -16 -85 6 -29 15 -68 24 -118 27 l-75 5 -25 51
c-83 169 -327 183 -436 23 -18 -26 -36 -67 -39 -91 l-7 -44 -51 24 c-41 18
-69 24 -127 24 -87 0 -122 -14 -233 -89 l-75 -51 -15 68 c-9 37 -25 117 -37
177 -12 61 -27 116 -32 123 -13 15 -40 16 -56 0z m945 -119 c119 -45 150 -203
57 -291 -90 -84 -217 -58 -276 56 -68 132 78 289 219 235z m322 -190 c17 -6
31 -12 31 -14 0 -2 -16 -26 -35 -55 -117 -174 -51 -413 141 -506 50 -24 71
-28 144 -29 77 0 92 3 152 33 36 18 82 51 103 73 106 118 124 300 40 423 -14
20 -25 41 -25 45 0 27 133 41 187 20 37 -13 213 -129 213 -140 0 -17 -200
-980 -205 -989 -9 -14 -1642 -13 -1650 0 -6 9 -184 865 -202 966 -5 29 -1 33
89 91 51 34 106 67 121 72 94 36 240 -15 299 -104 86 -130 269 -154 386 -51
37 33 82 116 82 154 0 20 5 22 49 22 26 0 62 -5 80 -11z m393 -21 c90 -38 158
-143 158 -244 0 -52 -37 -138 -77 -179 -80 -83 -209 -105 -309 -53 -182 95
-197 354 -27 459 82 51 162 56 255 17z"/>
</g>
</svg>
