<?xml version="1.0" standalone="no"?>
<!DOCTYPE svg PUBLIC "-//W3C//DTD SVG 20010904//EN"
 "http://www.w3.org/TR/2001/REC-SVG-20010904/DTD/svg10.dtd">
<svg version="1.0" xmlns="http://www.w3.org/2000/svg"
 width="260.000000pt" height="260.000000pt" viewBox="0 0 260.000000 260.000000"
 preserveAspectRatio="xMidYMid meet">
<metadata>
Created by potrace 1.16, written by Peter Selinger 2001-2019
</metadata>
<g transform="translate(0.000000,260.000000) scale(0.100000,-0.100000)"
fill="#000000" stroke="none">
<path d="M1142 1868 c-16 -16 -15 -43 1 -57 10 -7 150 -12 458 -13 l444 -3 67
-245 c37 -135 67 -251 68 -257 0 -10 -168 -13 -810 -13 -783 0 -812 -1 -867
-20 -67 -23 -138 -80 -175 -141 -19 -30 -57 -153 -123 -394 -52 -192 -95 -353
-95 -357 0 -3 7 -14 16 -22 13 -14 56 -16 320 -16 l304 0 -40 -81 c-25 -49
-39 -88 -35 -99 7 -21 39 -35 55 -25 6 4 33 51 60 106 l50 99 215 0 215 0 0
-89 c0 -90 11 -121 44 -121 28 0 36 26 36 117 l0 93 218 0 218 0 49 -100 c49
-101 72 -123 100 -100 23 19 18 44 -20 120 -19 38 -35 72 -35 75 0 3 136 5
303 5 318 0 327 1 327 44 0 12 -61 244 -135 516 -74 272 -165 606 -202 743
l-67 247 -476 0 c-357 0 -479 -3 -488 -12z m1168 -1050 c57 -211 105 -389 108
-395 3 -10 -221 -13 -1102 -13 -836 0 -1106 3 -1106 12 0 22 161 603 176 634
22 47 73 94 129 120 l50 24 821 0 820 0 104 -382z"/>
</g>
</svg>
