<?xml version="1.0" standalone="no"?>
<!DOCTYPE svg PUBLIC "-//W3C//DTD SVG 20010904//EN"
 "http://www.w3.org/TR/2001/REC-SVG-20010904/DTD/svg10.dtd">
<svg version="1.0" xmlns="http://www.w3.org/2000/svg"
 width="260.000000pt" height="260.000000pt" viewBox="0 0 260.000000 260.000000"
 preserveAspectRatio="xMidYMid meet">
<metadata>
Created by potrace 1.16, written by Peter Selinger 2001-2019
</metadata>
<g transform="translate(0.000000,260.000000) scale(0.100000,-0.100000)"
fill="#000000" stroke="none">
<path d="M280 1420 l0 -1040 1040 0 1040 0 0 1040 0 1040 -1040 0 -1040 0 0
-1040z m2000 0 l0 -960 -957 2 -958 3 -3 958 -2 957 960 0 960 0 0 -960z"/>
<path d="M1164 2355 c-183 -32 -349 -116 -486 -244 -131 -123 -212 -254 -264
-428 -35 -118 -44 -320 -20 -441 73 -358 327 -629 687 -732 107 -31 298 -38
409 -16 228 47 412 153 553 321 196 234 270 556 193 847 -90 340 -364 604
-708 683 -101 23 -265 28 -364 10z m367 -94 c481 -123 765 -631 613 -1098 -78
-239 -257 -437 -482 -533 -125 -53 -185 -64 -342 -64 -166 0 -225 12 -358 75
-239 111 -406 310 -478 569 -26 91 -26 338 -1 430 43 154 151 329 263 427 141
121 264 176 484 217 51 9 227 -4 301 -23z"/>
<path d="M367 253 c-14 -13 -6 -53 12 -63 13 -7 326 -10 943 -10 994 0 964 -2
956 51 l-3 24 -951 3 c-523 1 -954 -1 -957 -5z"/>
</g>
</svg>
