<?xml version="1.0" standalone="no"?>
<!DOCTYPE svg PUBLIC "-//W3C//DTD SVG 20010904//EN"
 "http://www.w3.org/TR/2001/REC-SVG-20010904/DTD/svg10.dtd">
<svg version="1.0" xmlns="http://www.w3.org/2000/svg"
 width="260.000000pt" height="260.000000pt" viewBox="0 0 260.000000 260.000000"
 preserveAspectRatio="xMidYMid meet">
<metadata>
Created by potrace 1.16, written by Peter Selinger 2001-2019
</metadata>
<g transform="translate(0.000000,260.000000) scale(0.100000,-0.100000)"
fill="#000000" stroke="none">
<path d="M270 1440 l0 -1040 1040 0 1040 0 0 1040 0 1040 -1040 0 -1040 0 0
-1040z m1998 -2 l2 -958 -960 0 -960 0 0 953 c0 525 3 957 7 960 3 4 434 6
957 5 l951 -3 3 -957z"/>
<path d="M1144 2369 c-135 -22 -309 -102 -428 -195 -81 -64 -187 -194 -239
-293 -199 -379 -127 -829 180 -1126 65 -63 199 -151 282 -186 234 -98 510 -98
741 0 288 123 507 399 561 706 19 111 7 322 -25 430 -102 342 -401 608 -746
664 -76 13 -252 12 -326 0z m331 -84 c186 -40 307 -105 441 -239 186 -186 263
-383 251 -645 -6 -148 -22 -213 -82 -338 -129 -267 -381 -446 -680 -483 -284
-36 -597 95 -771 322 -268 348 -246 816 54 1130 125 131 284 220 452 253 89
18 250 18 335 0z"/>
</g>
</svg>
