<?xml version="1.0" standalone="no"?>
<!DOCTYPE svg PUBLIC "-//W3C//DTD SVG 20010904//EN"
 "http://www.w3.org/TR/2001/REC-SVG-20010904/DTD/svg10.dtd">
<svg version="1.0" xmlns="http://www.w3.org/2000/svg"
 width="260.000000pt" height="260.000000pt" viewBox="0 0 260.000000 260.000000"
 preserveAspectRatio="xMidYMid meet">
<metadata>
Created by potrace 1.16, written by Peter Selinger 2001-2019
</metadata>
<g transform="translate(0.000000,260.000000) scale(0.100000,-0.100000)"
fill="#000000" stroke="none">
<path d="M290 1430 l0 -1040 1035 0 1035 0 0 1040 0 1040 -1035 0 -1035 0 0
-1040z m1990 0 l0 -960 -955 0 -955 0 0 960 0 960 955 0 955 0 0 -960z"/>
<path d="M1220 2374 c-254 -47 -406 -121 -560 -274 -172 -170 -264 -379 -277
-625 -14 -272 91 -533 291 -722 175 -167 370 -250 611 -260 265 -12 501 77
690 258 184 177 279 384 292 639 26 526 -381 966 -912 985 -60 2 -121 2 -135
-1z m315 -104 c153 -39 295 -122 409 -238 74 -76 107 -124 163 -237 131 -269
104 -592 -69 -848 -215 -317 -627 -455 -990 -331 -387 131 -637 534 -579 932
75 512 572 848 1066 722z"/>
<path d="M387 283 c-14 -13 -6 -53 12 -63 13 -7 326 -10 943 -10 994 0 964 -2
956 51 l-3 24 -951 3 c-523 1 -954 -1 -957 -5z"/>
<path d="M387 103 c-14 -13 -6 -53 12 -63 13 -7 326 -10 943 -10 994 0 964 -2
956 51 l-3 24 -951 3 c-523 1 -954 -1 -957 -5z"/>
</g>
</svg>
