<?xml version="1.0" standalone="no"?>
<!DOCTYPE svg PUBLIC "-//W3C//DTD SVG 20010904//EN"
 "http://www.w3.org/TR/2001/REC-SVG-20010904/DTD/svg10.dtd">
<svg version="1.0" xmlns="http://www.w3.org/2000/svg"
 width="260.000000pt" height="260.000000pt" viewBox="0 0 260.000000 260.000000"
 preserveAspectRatio="xMidYMid meet">
<metadata>
Created by potrace 1.16, written by Peter Selinger 2001-2019
</metadata>
<g transform="translate(0.000000,260.000000) scale(0.100000,-0.100000)"
fill="#000000" stroke="none">
<path d="M117 1852 c-14 -16 -4 -76 134 -752 82 -404 153 -745 159 -758 l10
-22 887 2 888 3 12 40 c23 79 301 1468 296 1481 -9 24 -45 28 -62 7 -9 -10
-31 -96 -50 -191 -19 -95 -36 -172 -37 -172 -2 0 -44 27 -95 60 -156 103 -227
106 -409 20 -157 -74 -178 -74 -342 5 -119 58 -125 60 -203 60 -78 0 -84 -2
-203 -60 -164 -79 -189 -80 -340 -6 -180 86 -256 83 -414 -21 -49 -32 -90 -58
-92 -58 -2 0 -18 75 -36 168 -40 206 -59 242 -103 194z m1374 -358 c115 -55
129 -59 194 -59 64 0 80 5 180 52 182 87 214 85 369 -17 l104 -68 -80 -389
c-43 -213 -89 -437 -102 -498 l-22 -110 -829 0 -830 0 -12 60 c-7 33 -52 257
-101 498 l-90 438 105 69 c155 102 187 103 368 17 100 -47 116 -52 180 -52 64
0 80 5 190 57 153 72 141 68 201 65 38 -3 83 -19 175 -63z"/>
<path d="M1792 1285 c-80 -35 -71 -157 13 -185 77 -25 150 49 125 126 -19 58
-81 84 -138 59z m79 -76 c14 -27 -23 -64 -51 -49 -25 13 -26 55 -3 68 21 12
41 5 54 -19z"/>
<path d="M1415 1156 c-39 -17 -80 -65 -96 -113 -8 -21 -13 -78 -13 -128 0
-160 53 -236 169 -243 50 -3 66 0 95 20 57 39 83 98 88 199 7 142 -31 230
-114 265 -41 17 -90 17 -129 0z m120 -83 c28 -31 39 -73 39 -153 0 -120 -30
-180 -90 -180 -63 0 -94 59 -94 180 0 85 15 134 47 160 35 27 67 25 98 -7z"/>
<path d="M1007 1005 c-103 -137 -115 -157 -108 -182 l7 -28 112 -3 112 -3 0
-59 0 -60 40 0 40 0 0 59 c0 58 1 60 28 63 22 2 28 8 30 36 3 30 1 32 -27 32
l-31 0 0 150 0 150 -44 0 -44 0 -115 -155z m120 -142 c-3 -2 -34 -3 -71 -1
l-66 3 67 93 68 94 3 -92 c1 -51 1 -94 -1 -97z"/>
</g>
</svg>
