<?xml version="1.0" standalone="no"?>
<!DOCTYPE svg PUBLIC "-//W3C//DTD SVG 20010904//EN"
 "http://www.w3.org/TR/2001/REC-SVG-20010904/DTD/svg10.dtd">
<svg version="1.0" xmlns="http://www.w3.org/2000/svg"
 width="260.000000pt" height="260.000000pt" viewBox="0 0 260.000000 260.000000"
 preserveAspectRatio="xMidYMid meet">
<metadata>
Created by potrace 1.16, written by Peter Selinger 2001-2019
</metadata>
<g transform="translate(0.000000,260.000000) scale(0.100000,-0.100000)"
fill="#000000" stroke="none">
<path d="M106 1857 c-17 -13 -11 -51 134 -763 84 -412 157 -755 163 -761 13
-17 1772 -19 1782 -3 12 19 306 1475 303 1499 -2 13 -11 29 -20 35 -35 22 -53
-18 -88 -199 -19 -93 -35 -171 -36 -173 -1 -2 -42 24 -92 56 -157 103 -242
107 -412 22 -149 -75 -177 -74 -341 5 -119 58 -126 60 -204 60 -77 0 -84 -2
-205 -60 -166 -79 -191 -80 -345 -4 -107 53 -112 54 -195 54 -94 0 -110 -6
-234 -89 -38 -26 -70 -45 -72 -44 -1 2 -19 82 -39 177 -42 205 -51 223 -99
188z m1355 -355 c182 -90 236 -92 401 -10 94 47 109 52 174 52 l70 1 107 -70
c59 -38 107 -77 107 -85 0 -14 -172 -868 -195 -967 l-5 -23 -828 0 -827 0 -98
483 c-54 265 -101 490 -103 499 -4 13 21 35 101 87 152 100 189 103 346 28
180 -87 225 -86 411 4 158 77 186 78 339 1z"/>
<path d="M1793 1285 c-32 -14 -63 -59 -63 -92 0 -33 37 -81 73 -92 64 -21 127
24 127 91 0 49 -22 83 -62 97 -38 13 -36 13 -75 -4z m75 -93 c-4 -37 -51 -44
-69 -11 -10 20 -9 25 11 41 30 24 63 8 58 -30z"/>
<path d="M1430 1159 c-35 -14 -69 -48 -93 -94 -18 -33 -22 -57 -22 -145 0 -91
3 -112 24 -153 14 -30 38 -58 62 -74 33 -22 47 -25 97 -21 73 5 112 31 144 96
20 40 23 62 23 152 0 88 -4 112 -22 145 -47 89 -131 126 -213 94z m103 -79
c38 -30 50 -79 45 -184 -3 -76 -8 -98 -27 -124 -24 -34 -63 -42 -100 -22 -31
16 -51 83 -51 171 0 88 15 138 51 163 31 21 51 20 82 -4z"/>
<path d="M1036 1056 c-94 -129 -109 -163 -104 -236 7 -98 66 -150 168 -150
100 0 170 69 170 167 0 81 -75 148 -158 140 -49 -5 -53 -16 46 106 l64 77 -55
0 -56 0 -75 -104z m93 -147 c94 -33 66 -169 -35 -169 -34 0 -47 5 -63 26 -39
50 -15 136 42 147 12 2 22 5 23 6 1 0 15 -4 33 -10z"/>
</g>
</svg>
