<?xml version="1.0" standalone="no"?>
<!DOCTYPE svg PUBLIC "-//W3C//DTD SVG 20010904//EN"
 "http://www.w3.org/TR/2001/REC-SVG-20010904/DTD/svg10.dtd">
<svg version="1.0" xmlns="http://www.w3.org/2000/svg"
 width="260.000000pt" height="260.000000pt" viewBox="0 0 260.000000 260.000000"
 preserveAspectRatio="xMidYMid meet">
<metadata>
Created by potrace 1.16, written by Peter Selinger 2001-2019
</metadata>
<g transform="translate(0.000000,260.000000) scale(0.100000,-0.100000)"
fill="#000000" stroke="none">
<path d="M113 1863 c-7 -2 -13 -18 -13 -33 0 -33 295 -1483 305 -1499 10 -17
1769 -15 1782 2 5 6 15 37 21 67 184 884 291 1434 282 1451 -12 22 -42 25 -59
6 -6 -8 -27 -92 -47 -188 -20 -96 -37 -176 -39 -177 -2 -2 -33 16 -68 41 -117
82 -142 92 -237 92 -83 0 -88 -2 -195 -54 -96 -48 -118 -54 -170 -54 -53 0
-73 6 -175 58 -113 58 -116 59 -200 59 -84 1 -87 0 -208 -59 -164 -79 -188
-80 -338 -6 -178 87 -258 83 -416 -21 -59 -38 -90 -54 -93 -46 -3 7 -20 89
-39 182 -36 180 -46 199 -93 179z m1372 -369 c114 -56 122 -59 195 -59 70 1
82 5 184 54 113 56 161 68 220 57 44 -8 249 -142 244 -159 -3 -7 -49 -231
-104 -499 l-99 -488 -827 0 c-779 0 -827 1 -832 18 -11 37 -196 954 -196 970
1 20 167 133 224 152 59 19 114 7 234 -49 169 -80 226 -78 410 13 117 58 110
56 172 52 42 -3 83 -18 175 -62z"/>
<path d="M1794 1286 c-85 -37 -85 -146 0 -181 42 -18 81 -8 111 27 46 54 27
126 -41 154 -39 16 -32 16 -70 0z m71 -76 c7 -21 -2 -47 -20 -53 -16 -7 -55
20 -55 38 0 18 39 45 56 38 7 -3 16 -13 19 -23z"/>
<path d="M1412 1149 c-28 -14 -52 -37 -70 -68 -25 -43 -27 -54 -27 -161 0
-104 2 -119 25 -160 34 -60 80 -90 141 -90 84 0 124 27 162 110 30 64 30 215
0 281 -43 95 -143 133 -231 88z m123 -73 c30 -30 45 -84 45 -161 0 -116 -32
-175 -93 -175 -62 0 -89 55 -90 180 0 62 5 95 18 123 28 59 80 73 120 33z"/>
<path d="M930 1125 l0 -35 120 0 c66 0 120 -2 120 -5 0 -3 -45 -95 -100 -205
-55 -110 -100 -202 -100 -205 0 -4 19 -5 43 -3 l42 3 107 215 c59 118 107 227
108 243 l0 27 -170 0 -170 0 0 -35z"/>
</g>
</svg>
