<?xml version="1.0" standalone="no"?>
<!DOCTYPE svg PUBLIC "-//W3C//DTD SVG 20010904//EN"
 "http://www.w3.org/TR/2001/REC-SVG-20010904/DTD/svg10.dtd">
<svg version="1.0" xmlns="http://www.w3.org/2000/svg"
 width="260.000000pt" height="260.000000pt" viewBox="0 0 260.000000 260.000000"
 preserveAspectRatio="xMidYMid meet">
<metadata>
Created by potrace 1.16, written by Peter Selinger 2001-2019
</metadata>
<g transform="translate(0.000000,260.000000) scale(0.100000,-0.100000)"
fill="#000000" stroke="none">
<path d="M110 1855 c-16 -20 -18 -8 94 -555 52 -256 117 -574 145 -708 27
-134 55 -250 61 -258 18 -20 1761 -21 1779 -1 6 8 37 146 70 308 33 162 101
496 152 744 64 314 88 454 82 465 -13 20 -47 24 -60 8 -6 -7 -25 -85 -43 -172
-44 -218 -34 -203 -105 -155 -124 83 -152 94 -245 94 -83 0 -88 -2 -195 -54
-154 -76 -180 -76 -344 4 -121 58 -126 60 -205 60 -78 -1 -85 -3 -200 -60
-161 -79 -192 -80 -343 -6 -177 87 -257 82 -416 -24 -57 -39 -83 -51 -88 -42
-4 6 -22 86 -40 175 -18 90 -39 170 -46 178 -19 18 -37 18 -53 -1z m1365 -357
c124 -60 133 -63 205 -63 71 0 82 4 195 58 171 81 209 78 365 -32 39 -27 76
-51 82 -53 6 -2 -29 -194 -91 -498 -56 -272 -101 -498 -101 -502 0 -5 -373 -8
-829 -8 l-829 0 -11 48 c-6 26 -38 182 -71 347 -34 165 -74 364 -90 443 -17
79 -30 148 -30 155 0 14 158 119 215 143 62 26 123 14 249 -47 103 -51 114
-54 185 -54 72 1 82 4 206 63 171 81 179 81 350 0z"/>
<path d="M1786 1285 c-41 -22 -55 -44 -56 -88 0 -77 64 -122 133 -93 35 14 67
58 67 91 0 32 -32 77 -65 91 -42 17 -43 17 -79 -1z m76 -78 c9 -17 7 -24 -12
-39 -28 -23 -60 -8 -60 27 0 45 50 53 72 12z"/>
<path d="M1432 1163 c-39 -7 -97 -74 -112 -129 -22 -76 -17 -198 10 -262 51
-119 208 -141 283 -40 39 53 50 101 45 207 -3 79 -8 104 -28 141 -38 69 -110
100 -198 83z m102 -87 c51 -50 59 -229 12 -298 -28 -42 -77 -50 -111 -18 -64
60 -55 290 12 329 30 17 63 12 87 -13z"/>
<path d="M986 1143 c-14 -52 -38 -215 -31 -221 4 -4 39 -6 79 -4 61 2 77 -1
99 -19 37 -29 38 -99 2 -134 -28 -29 -84 -33 -125 -10 -36 21 -56 18 -74 -9
-15 -24 -15 -25 22 -48 55 -34 153 -37 207 -6 55 32 88 96 82 161 -8 87 -68
137 -165 137 -51 0 -52 1 -47 25 3 14 7 36 10 50 5 23 9 24 93 27 l87 3 3 33
3 32 -120 0 c-105 0 -120 -2 -125 -17z"/>
</g>
</svg>
