<?xml version="1.0" standalone="no"?>
<!DOCTYPE svg PUBLIC "-//W3C//DTD SVG 20010904//EN"
 "http://www.w3.org/TR/2001/REC-SVG-20010904/DTD/svg10.dtd">
<svg version="1.0" xmlns="http://www.w3.org/2000/svg"
 width="260.000000pt" height="260.000000pt" viewBox="0 0 260.000000 260.000000"
 preserveAspectRatio="xMidYMid meet">
<metadata>
Created by potrace 1.16, written by Peter Selinger 2001-2019
</metadata>
<g transform="translate(0.000000,260.000000) scale(0.100000,-0.100000)"
fill="#000000" stroke="none">
<path d="M106 1854 c-9 -9 -14 -25 -11 -37 5 -22 140 -685 241 -1182 30 -148
59 -280 64 -292 l10 -23 885 0 885 0 10 23 c6 12 35 144 64 292 30 149 98 479
150 734 52 255 92 470 89 477 -8 21 -44 28 -60 11 -9 -9 -30 -89 -50 -189 -19
-95 -36 -174 -38 -176 -1 -2 -44 24 -95 57 -157 104 -230 107 -409 21 -155
-75 -178 -74 -343 5 -119 58 -125 60 -203 60 -78 0 -85 -2 -202 -59 -165 -80
-190 -80 -345 -6 -110 54 -115 55 -198 55 -95 -1 -107 -6 -228 -87 -41 -27
-75 -48 -76 -46 -2 1 -18 77 -36 168 -41 204 -59 239 -104 194z m1375 -360
c115 -55 129 -59 194 -59 64 0 80 5 180 52 182 87 214 85 369 -17 l104 -69
-85 -413 c-46 -227 -92 -451 -102 -498 l-17 -85 -829 0 -829 0 -12 60 c-7 33
-53 257 -102 498 l-90 438 104 69 c154 102 193 104 371 17 96 -47 112 -51 177
-52 66 0 80 4 191 57 153 72 141 68 201 65 38 -3 83 -19 175 -63z"/>
<path d="M1790 1283 c-23 -12 -39 -30 -48 -55 -13 -33 -12 -41 4 -75 22 -45
70 -66 118 -52 38 11 54 27 64 64 25 88 -58 158 -138 118z m80 -88 c0 -43 -50
-53 -70 -14 -8 14 -6 23 10 39 26 26 60 12 60 -25z"/>
<path d="M1036 1160 c-61 -19 -106 -83 -106 -152 0 -87 64 -144 152 -136 26 3
48 3 48 1 0 -2 -36 -48 -80 -101 l-79 -97 36 -3 c66 -6 77 2 161 127 85 126
101 173 88 246 -18 92 -119 145 -220 115z m113 -77 c12 -10 24 -35 28 -55 5
-32 1 -41 -25 -68 -32 -32 -56 -37 -95 -19 -52 24 -60 87 -18 130 34 34 77 38
110 12z"/>
<path d="M1376 1068 c-9 -51 -19 -105 -22 -119 -6 -32 16 -40 86 -32 67 8 97
-2 115 -37 21 -41 11 -94 -24 -121 -29 -23 -81 -22 -138 2 -30 12 -34 11 -48
-6 -23 -31 -18 -42 28 -64 87 -42 198 -19 248 50 30 43 37 124 15 171 -23 47
-80 78 -145 78 -56 0 -58 3 -45 68 l6 31 86 3 86 3 7 33 6 32 -122 0 -123 0
-16 -92z"/>
</g>
</svg>
