<?xml version="1.0" standalone="no"?>
<!DOCTYPE svg PUBLIC "-//W3C//DTD SVG 20010904//EN"
 "http://www.w3.org/TR/2001/REC-SVG-20010904/DTD/svg10.dtd">
<svg version="1.0" xmlns="http://www.w3.org/2000/svg"
 width="260.000000pt" height="260.000000pt" viewBox="0 0 260.000000 260.000000"
 preserveAspectRatio="xMidYMid meet">
<metadata>
Created by potrace 1.16, written by Peter Selinger 2001-2019
</metadata>
<g transform="translate(0.000000,260.000000) scale(0.100000,-0.100000)"
fill="#000000" stroke="none">
<path d="M119 1964 c-11 -13 -1 -72 59 -367 215 -1060 232 -1142 249 -1154 25
-19 1742 -19 1765 0 22 17 325 1494 311 1517 -13 20 -47 24 -60 8 -9 -10 -83
-338 -83 -364 0 -3 -34 18 -76 47 -112 75 -147 89 -234 89 -71 0 -82 -3 -190
-55 -158 -76 -183 -76 -350 5 -118 57 -128 60 -200 60 -72 0 -82 -3 -200 -60
-167 -81 -192 -81 -350 -5 -108 52 -119 55 -190 55 -87 0 -122 -14 -234 -89
-63 -43 -75 -48 -80 -33 -3 9 -19 89 -36 177 -18 88 -37 166 -42 173 -14 17
-43 15 -59 -4z m1366 -351 c117 -57 122 -58 205 -58 82 0 89 2 195 53 117 55
178 65 242 41 33 -12 213 -129 213 -138 0 -16 -201 -984 -206 -992 -5 -9
-1654 -13 -1654 -4 0 2 -45 224 -100 494 -55 269 -100 493 -100 498 0 10 141
107 197 137 19 9 56 16 90 16 49 0 74 -8 176 -56 l118 -56 82 4 c75 5 92 10
196 62 156 77 182 77 346 -1z"/>
<path d="M1276 1315 c-3 -9 -6 -48 -6 -87 l0 -70 -54 56 c-57 61 -58 61 -87
46 -29 -16 -24 -30 36 -92 l56 -58 -74 0 c-78 0 -97 -9 -97 -47 0 -22 3 -23
80 -23 44 0 80 -3 80 -7 0 -3 -22 -30 -50 -59 -27 -29 -50 -57 -50 -63 0 -11
28 -41 38 -41 4 0 33 25 65 55 l57 55 0 -73 c0 -83 8 -100 41 -95 23 3 24 7
27 86 2 45 6 82 9 82 3 0 30 -25 60 -55 30 -30 58 -55 63 -55 11 0 40 29 40
40 0 4 -25 34 -55 65 -30 32 -55 59 -55 61 0 2 37 4 82 6 73 3 83 5 86 22 6
31 -26 46 -100 46 l-68 0 55 56 c30 31 55 60 55 65 0 11 -30 39 -41 39 -6 0
-37 -25 -69 -56 l-59 -56 -3 83 c-3 82 -4 84 -29 87 -17 2 -29 -3 -33 -13z"/>
</g>
</svg>
