<?xml version="1.0" standalone="no"?>
<!DOCTYPE svg PUBLIC "-//W3C//DTD SVG 20010904//EN"
 "http://www.w3.org/TR/2001/REC-SVG-20010904/DTD/svg10.dtd">
<svg version="1.0" xmlns="http://www.w3.org/2000/svg"
 width="260.000000pt" height="260.000000pt" viewBox="0 0 260.000000 260.000000"
 preserveAspectRatio="xMidYMid meet">
<metadata>
Created by potrace 1.16, written by Peter Selinger 2001-2019
</metadata>
<g transform="translate(0.000000,260.000000) scale(0.100000,-0.100000)"
fill="#000000" stroke="none">
<path d="M115 1856 c-18 -13 -17 -22 33 -267 172 -855 254 -1245 264 -1256 16
-20 1761 -19 1777 1 11 13 39 143 222 1044 95 464 97 482 57 490 -31 6 -45
-29 -77 -189 -19 -90 -36 -170 -40 -176 -5 -9 -34 6 -95 47 -153 101 -233 105
-410 19 -151 -74 -180 -73 -342 7 -116 57 -121 59 -200 59 -79 0 -85 -2 -203
-59 -164 -80 -192 -80 -346 -5 -107 52 -112 54 -195 54 -95 0 -122 -11 -239
-92 -35 -24 -66 -42 -69 -39 -2 3 -20 83 -39 178 -39 193 -52 218 -98 184z
m1360 -358 c123 -59 134 -62 205 -63 71 0 81 3 195 58 131 62 175 70 243 42
52 -22 211 -128 212 -141 0 -11 -10 -60 -129 -643 -39 -189 -71 -346 -71 -347
0 -2 -373 -4 -830 -4 -456 0 -830 3 -830 8 0 5 -166 817 -196 963 -5 23 2 32
76 83 167 118 202 121 375 39 113 -54 124 -58 195 -58 70 0 83 4 175 49 198
97 204 97 380 14z"/>
<path d="M1804 1290 c-34 -13 -64 -59 -64 -96 0 -49 44 -96 93 -97 98 -3 145
125 65 177 -32 20 -69 27 -94 16z m73 -86 c8 -22 -17 -45 -46 -42 -31 4 -40
38 -16 62 18 18 51 7 62 -20z"/>
<path d="M1046 1160 c-38 -12 -75 -47 -93 -88 -17 -41 -11 -52 32 -52 25 0 35
5 40 20 9 27 53 60 81 60 35 0 64 -34 64 -75 0 -37 -21 -58 -72 -70 -22 -6
-28 -13 -28 -35 0 -25 4 -28 42 -33 49 -7 68 -27 68 -73 0 -69 -97 -100 -145
-48 -14 15 -25 30 -25 34 0 15 -31 19 -55 8 -30 -14 -31 -23 -5 -66 30 -49 75
-72 143 -72 82 0 133 28 159 87 26 59 18 107 -26 147 l-32 30 29 26 c60 54 41
152 -37 190 -44 21 -91 24 -140 10z"/>
<path d="M1445 1163 c-78 -21 -117 -93 -123 -224 -6 -136 25 -216 98 -254 34
-18 112 -20 143 -4 63 33 92 79 107 173 19 118 -12 234 -75 282 -33 25 -109
39 -150 27z m86 -73 c69 -37 79 -269 14 -330 -34 -32 -83 -24 -111 18 -29 43
-40 140 -24 217 18 87 65 124 121 95z"/>
</g>
</svg>
