<?xml version="1.0" standalone="no"?>
<!DOCTYPE svg PUBLIC "-//W3C//DTD SVG 20010904//EN"
 "http://www.w3.org/TR/2001/REC-SVG-20010904/DTD/svg10.dtd">
<svg version="1.0" xmlns="http://www.w3.org/2000/svg"
 width="260.000000pt" height="260.000000pt" viewBox="0 0 260.000000 260.000000"
 preserveAspectRatio="xMidYMid meet">
<metadata>
Created by potrace 1.16, written by Peter Selinger 2001-2019
</metadata>
<g transform="translate(0.000000,260.000000) scale(0.100000,-0.100000)"
fill="#000000" stroke="none">
<path d="M105 1857 c-14 -11 -16 -21 -11 -53 7 -37 100 -495 237 -1164 33
-162 65 -301 71 -307 8 -10 196 -13 888 -13 750 0 879 2 889 14 7 8 80 348
164 756 155 760 156 770 115 778 -31 6 -45 -30 -77 -190 -18 -89 -36 -169 -40
-175 -4 -9 -34 5 -95 47 -153 101 -227 105 -406 20 -157 -74 -185 -74 -346 6
-116 57 -121 59 -200 59 -79 0 -85 -2 -203 -59 -164 -80 -192 -80 -346 -5
-107 52 -112 54 -195 54 -93 0 -122 -11 -245 -94 -53 -36 -61 -39 -67 -23 -4
9 -21 89 -38 177 -35 179 -49 205 -95 172z m1360 -359 c123 -59 134 -62 205
-62 71 -1 82 3 195 57 131 62 175 70 243 42 55 -23 212 -128 212 -142 0 -11
-105 -531 -175 -866 -14 -64 -25 -119 -25 -122 0 -3 -373 -5 -829 -5 l-828 0
-16 78 c-9 42 -55 268 -102 502 -53 260 -83 426 -77 428 6 2 43 26 82 53 156
110 194 113 365 32 112 -54 124 -58 195 -58 72 0 81 3 205 63 170 81 178 81
350 0z"/>
<path d="M1760 1283 c-110 -57 -41 -219 77 -180 28 9 43 22 55 47 44 89 -44
177 -132 133z m80 -88 c0 -43 -50 -53 -70 -14 -8 14 -6 23 10 39 26 26 60 12
60 -25z"/>
<path d="M1006 1160 c-61 -19 -106 -83 -106 -152 0 -87 64 -144 152 -136 26 3
48 4 48 2 0 -2 -36 -48 -80 -101 l-79 -98 36 -3 c20 -2 46 -1 57 2 26 7 160
197 181 256 53 151 -59 275 -209 230z m99 -66 c19 -8 45 -55 45 -84 0 -27 -52
-80 -79 -80 -56 0 -102 59 -86 110 14 43 75 71 120 54z"/>
<path d="M1395 1156 c-93 -41 -138 -191 -101 -335 28 -109 76 -151 174 -151
62 0 108 29 142 90 22 40 25 56 25 155 0 98 -3 116 -25 160 -42 80 -136 116
-215 81z m107 -70 c32 -24 50 -86 50 -171 0 -121 -28 -175 -89 -175 -41 0 -68
26 -82 77 -14 48 -14 157 -1 205 18 63 80 96 122 64z"/>
</g>
</svg>
