<?xml version="1.0" standalone="no"?>
<!DOCTYPE svg PUBLIC "-//W3C//DTD SVG 20010904//EN"
 "http://www.w3.org/TR/2001/REC-SVG-20010904/DTD/svg10.dtd">
<svg version="1.0" xmlns="http://www.w3.org/2000/svg"
 width="260.000000pt" height="260.000000pt" viewBox="0 0 260.000000 260.000000"
 preserveAspectRatio="xMidYMid meet">
<metadata>
Created by potrace 1.16, written by Peter Selinger 2001-2019
</metadata>
<g transform="translate(0.000000,260.000000) scale(0.100000,-0.100000)"
fill="#000000" stroke="none">
<path d="M1100 2501 c-111 -25 -189 -53 -269 -97 -260 -142 -429 -352 -517
-640 -26 -83 -28 -101 -28 -274 0 -159 3 -196 21 -262 105 -375 375 -645 751
-751 67 -18 102 -21 262 -21 171 0 192 2 275 27 354 106 612 364 722 722 25
85 27 101 27 280 0 179 -2 195 -27 279 -58 186 -130 309 -261 444 -130 134
-278 223 -461 278 -123 37 -364 44 -495 15z m468 -91 c337 -100 584 -350 674
-682 20 -71 23 -107 23 -248 0 -180 -13 -247 -75 -386 -96 -214 -291 -404
-501 -490 -126 -52 -188 -65 -331 -71 -242 -10 -431 48 -617 188 -244 184
-381 458 -381 764 0 455 309 837 762 940 98 22 351 14 446 -15z"/>
<path d="M900 1757 c0 -1 40 -131 88 -287 l88 -285 51 -3 51 -3 66 206 c37
113 69 205 71 205 2 0 23 -60 46 -132 22 -73 51 -164 63 -203 l23 -70 51 -3
51 -3 36 118 c20 65 59 188 86 274 27 86 49 164 49 173 0 12 -10 16 -42 16
-24 0 -49 -4 -56 -8 -7 -5 -37 -96 -68 -202 -30 -107 -56 -195 -57 -197 -2 -1
-31 84 -66 190 -35 106 -68 198 -73 205 -11 13 -46 16 -72 6 -9 -3 -41 -83
-82 -207 l-67 -201 -57 198 c-31 109 -63 202 -71 207 -12 8 -109 13 -109 6z"/>
<path d="M366 284 c-19 -18 -19 -20 -6 -45 10 -19 32 -19 953 -19 720 0 946 3
955 12 16 16 15 33 -4 52 -14 14 -114 16 -949 16 -835 0 -935 -2 -949 -16z"/>
<path d="M358 75 c-26 -58 -74 -55 956 -55 719 0 945 3 954 12 16 16 15 33 -4
52 -14 14 -114 16 -955 16 l-939 0 -12 -25z"/>
</g>
</svg>
