<?xml version="1.0" standalone="no"?>
<!DOCTYPE svg PUBLIC "-//W3C//DTD SVG 20010904//EN"
 "http://www.w3.org/TR/2001/REC-SVG-20010904/DTD/svg10.dtd">
<svg version="1.0" xmlns="http://www.w3.org/2000/svg"
 width="260.000000pt" height="260.000000pt" viewBox="0 0 260.000000 260.000000"
 preserveAspectRatio="xMidYMid meet">
<metadata>
Created by potrace 1.16, written by Peter Selinger 2001-2019
</metadata>
<g transform="translate(0.000000,260.000000) scale(0.100000,-0.100000)"
fill="#000000" stroke="none">
<path d="M1120 2495 c-425 -85 -751 -419 -824 -844 -77 -453 149 -899 561
-1105 241 -121 542 -141 798 -54 318 109 573 377 664 698 101 360 3 743 -259
1010 -153 156 -326 250 -542 294 -94 19 -304 20 -398 1z m465 -99 c218 -66
405 -204 530 -392 65 -96 108 -193 137 -311 33 -129 30 -321 -5 -456 -43 -162
-120 -299 -236 -420 -125 -130 -271 -218 -446 -269 -70 -20 -101 -23 -250 -22
-155 0 -178 3 -258 27 -336 103 -575 351 -669 693 -31 114 -31 334 -1 454 79
314 316 574 620 681 112 39 181 48 338 45 128 -3 163 -7 240 -30z"/>
<path d="M930 1734 c0 -16 20 -82 127 -422 l44 -143 51 3 51 3 53 165 c72 225
81 248 87 230 3 -8 34 -102 67 -208 l62 -193 50 3 51 3 88 285 c49 157 89 286
89 288 0 1 -22 2 -50 2 -41 0 -52 -4 -63 -22 -8 -13 -35 -99 -61 -193 -26 -93
-50 -177 -52 -185 -3 -8 -34 72 -69 178 -34 106 -68 199 -75 207 -17 20 -64
19 -81 -2 -8 -10 -42 -102 -74 -205 -33 -103 -62 -188 -65 -188 -3 0 -29 87
-58 193 -32 118 -59 197 -69 205 -9 6 -36 12 -60 12 -33 0 -43 -4 -43 -16z"/>
</g>
</svg>
