<?xml version="1.0" standalone="no"?>
<!DOCTYPE svg PUBLIC "-//W3C//DTD SVG 20010904//EN"
 "http://www.w3.org/TR/2001/REC-SVG-20010904/DTD/svg10.dtd">
<svg version="1.0" xmlns="http://www.w3.org/2000/svg"
 width="260.000000pt" height="260.000000pt" viewBox="0 0 260.000000 260.000000"
 preserveAspectRatio="xMidYMid meet">
<metadata>
Created by potrace 1.16, written by Peter Selinger 2001-2019
</metadata>
<g transform="translate(0.000000,260.000000) scale(0.100000,-0.100000)"
fill="#000000" stroke="none">
<path d="M1100 2501 c-385 -82 -690 -377 -792 -766 -32 -124 -36 -322 -9 -453
82 -395 364 -695 756 -802 113 -31 340 -39 456 -15 335 67 600 273 744 576
138 293 135 621 -9 907 -147 292 -405 490 -728 556 -105 22 -307 20 -418 -3z
m422 -81 c369 -81 650 -366 735 -745 20 -93 20 -289 0 -380 -82 -362 -336
-634 -688 -735 -95 -28 -297 -38 -405 -20 -196 31 -376 124 -519 265 -120 118
-212 276 -257 440 -31 114 -31 363 0 480 48 176 178 382 312 492 125 102 307
189 444 212 97 16 285 12 378 -9z"/>
<path d="M920 1748 c0 -6 37 -129 81 -272 45 -144 84 -269 86 -279 5 -15 15
-17 57 -15 l51 3 66 205 c58 178 68 202 76 180 6 -14 36 -107 68 -208 l59
-183 50 3 51 3 87 280 c48 154 88 283 88 288 0 12 -85 8 -103 -5 -14 -12 -117
-347 -117 -384 0 -8 -4 -14 -10 -14 -5 0 -10 5 -10 12 0 6 -27 96 -60 200 -55
171 -63 188 -86 194 -58 15 -68 -1 -136 -210 -34 -107 -64 -193 -67 -190 -3 2
-28 88 -57 190 -29 102 -58 192 -65 200 -14 18 -109 20 -109 2z"/>
<path d="M366 281 c-14 -15 -15 -24 -6 -40 l11 -21 942 0 c720 0 946 3 955 12
18 18 14 46 -7 58 -13 7 -327 10 -949 10 -903 0 -929 -1 -946 -19z"/>
</g>
</svg>
