<?xml version="1.0" standalone="no"?>
<!DOCTYPE svg PUBLIC "-//W3C//DTD SVG 20010904//EN"
 "http://www.w3.org/TR/2001/REC-SVG-20010904/DTD/svg10.dtd">
<svg version="1.0" xmlns="http://www.w3.org/2000/svg"
 width="642.000000pt" height="493.000000pt" viewBox="0 0 642.000000 493.000000"
 preserveAspectRatio="xMidYMid meet">
<metadata>
Created by potrace 1.16, written by Peter Selinger 2001-2019
</metadata>
<g transform="translate(0.000000,493.000000) scale(0.100000,-0.100000)"
fill="#000000" stroke="none">
<path d="M730 4093 c0 -7 -9 -13 -19 -13 -31 0 -80 -48 -92 -90 -12 -39 2
-110 93 -465 17 -66 31 -124 33 -130 1 -5 5 -21 8 -35 23 -96 40 -169 43 -190
3 -14 9 -36 14 -50 5 -14 11 -34 13 -45 5 -24 9 -42 49 -205 18 -69 34 -127
38 -130 5 -5 22 -71 112 -435 16 -66 30 -124 32 -130 5 -17 17 -66 41 -170 35
-147 38 -159 41 -170 6 -19 103 -410 140 -560 45 -182 47 -188 93 -220 l37
-25 1713 0 c1830 0 1715 -3 1774 44 16 12 44 88 62 161 6 25 33 142 49 215 13
54 62 249 152 600 24 96 50 204 58 240 21 101 120 484 126 490 5 4 94 344 106
405 6 29 13 62 20 88 3 12 9 38 14 57 5 19 11 45 14 58 3 12 8 31 11 42 3 11
7 29 10 40 3 11 7 29 10 40 3 11 8 30 11 43 3 12 6 27 8 32 2 6 6 21 9 35 3
14 22 94 43 178 32 135 35 158 25 192 -14 47 -62 90 -101 90 -16 0 -31 6 -33
13 -4 10 -6 10 -6 0 -1 -7 -10 -13 -22 -13 -36 0 -84 -59 -99 -120 -7 -30 -16
-57 -20 -60 -9 -6 -54 -177 -85 -319 -26 -118 -17 -106 -165 -205 -126 -84
-173 -109 -245 -129 -174 -48 -293 -20 -570 132 -173 95 -267 129 -435 156
-66 11 -281 8 -353 -5 -61 -11 -204 -61 -302 -105 -65 -30 -124 -56 -267 -120
-65 -29 -141 -61 -170 -71 -29 -9 -55 -20 -58 -25 -3 -4 -33 -10 -68 -12 -47
-4 -66 -2 -77 10 -9 9 -15 10 -15 3 0 -7 -6 -6 -15 4 -8 8 -25 18 -38 21 -22
7 -118 52 -362 170 -181 88 -295 125 -388 125 -151 0 -362 -66 -559 -174 -56
-31 -104 -56 -108 -56 -3 0 -14 33 -23 73 -22 88 -23 94 -32 132 -4 17 -13 50
-20 75 -7 25 -26 99 -41 165 -16 66 -32 122 -35 125 -6 5 -17 42 -33 112 -10
43 -53 87 -94 94 -20 4 -40 12 -44 18 -5 8 -8 7 -8 -1z"/>
</g>
</svg>
